<?xml version="1.0" encoding="UTF-8"?>
<!DOCTYPE svg PUBLIC "-//W3C//DTD SVG 1.1//EN" "http://www.w3.org/Graphics/SVG/1.1/DTD/svg11.dtd">
<svg xmlns="http://www.w3.org/2000/svg" version="1.1" width="500px" height="140px" style="shape-rendering:geometricPrecision; text-rendering:geometricPrecision; image-rendering:optimizeQuality; fill-rule:evenodd; clip-rule:evenodd" xmlns:xlink="http://www.w3.org/1999/xlink">
<g><path style="opacity:0.2"   fill="#7b337d" d="M 286.5,18.5 C 288.911,18.1367 290.411,19.1367 291,21.5C 294.642,32.7311 297.975,44.0644 301,55.5C 301.278,54.5842 301.778,53.9175 302.5,53.5C 302.5,54.5 302.5,55.5 302.5,56.5C 302.108,58.1789 301.608,59.8455 301,61.5C 300.722,60.5842 300.222,59.9175 299.5,59.5C 298.733,55.6731 297.733,52.0064 296.5,48.5C 294.999,42.675 293.332,37.0084 291.5,31.5C 291.5,31.1667 291.5,30.8333 291.5,30.5C 290.731,26.0418 289.064,22.0418 286.5,18.5 Z"/></g>
<g><path style="opacity:0.944" fill="#7b337d" d="M 136.5,18.5 C 137.833,18.5 139.167,18.5 140.5,18.5C 140.783,19.2891 141.283,19.9558 142,20.5C 142.172,27.0133 142.672,33.3466 143.5,39.5C 143.44,40.0431 143.107,40.3764 142.5,40.5C 141.833,34.5 141.167,28.5 140.5,22.5C 138.38,21.1285 137.38,21.7952 137.5,24.5C 136.522,36.0861 136.189,47.7527 136.5,59.5C 135.194,45.9611 135.194,32.2945 136.5,18.5 Z"/></g>
<g><path style="opacity:0.978" fill="#7b337d" d="M 283.5,18.5 C 284.5,18.5 285.5,18.5 286.5,18.5C 289.064,22.0418 290.731,26.0418 291.5,30.5C 290.85,30.1961 290.183,29.8627 289.5,29.5C 288.686,27.2338 288.186,24.9005 288,22.5C 286.989,21.6634 285.822,21.33 284.5,21.5C 286.395,26.976 287.395,32.6427 287.5,38.5C 286.13,34.5711 284.63,30.5711 283,26.5C 282.278,23.7395 282.445,21.0728 283.5,18.5 Z"/></g>
<g><path style="opacity:0.102" fill="#7b337d" d="M 32.5,18.5 C 28.7399,20.2155 25.0732,22.2155 21.5,24.5C 21.4142,23.5041 21.7476,22.6708 22.5,22C 25.5612,19.9653 28.8945,18.7986 32.5,18.5 Z"/></g>
<g><path style="opacity:0.996" fill="#7b337d" d="M 41.5,21.5 C 44.5,22.1667 47.5,22.8333 50.5,23.5C 50.6107,24.1174 50.944,24.6174 51.5,25C 49.8659,25.4935 48.1992,25.6602 46.5,25.5C 44.7165,24.545 42.7165,23.8783 40.5,23.5C 36.9061,24.8194 33.2395,25.3194 29.5,25C 33.2592,23.0147 37.2592,21.848 41.5,21.5 Z"/></g>
<g><path style="opacity:0.994" fill="#7b337d" d="M 41.5,21.5 C 45.1667,21.5 48.8333,21.5 52.5,21.5C 53.1667,21.8333 53.8333,22.1667 54.5,22.5C 55.0312,24.5441 56.1978,26.2107 58,27.5C 58.765,29.0657 58.5983,30.3991 57.5,31.5C 56.4324,30.5655 55.099,30.2322 53.5,30.5C 53.5,29.5 53.5,28.5 53.5,27.5C 49.9438,27.7251 49.6105,26.8918 52.5,25C 52.1639,23.9701 51.4972,23.4701 50.5,23.5C 47.5,22.8333 44.5,22.1667 41.5,21.5 Z"/></g>
<g><path style="opacity:0.153" fill="#7b337d" d="M 341.5,19.5 C 340.833,23.1667 340.167,26.8333 339.5,30.5C 338.593,32.6568 337.927,34.9902 337.5,37.5C 336.566,38.5676 336.232,39.901 336.5,41.5C 335.267,45.0064 334.267,48.6731 333.5,52.5C 332.833,53.1667 332.167,53.8333 331.5,54.5C 334.054,42.5161 337.388,30.8494 341.5,19.5 Z"/></g>
<g><path style="opacity:0.995" fill="#7b337d" d="M 32.5,18.5 C 37.1667,18.5 41.8333,18.5 46.5,18.5C 48.5,19.5 50.5,20.5 52.5,21.5C 48.8333,21.5 45.1667,21.5 41.5,21.5C 41.9175,20.7784 42.5842,20.2784 43.5,20C 36.6357,18.3441 30.9691,20.1774 26.5,25.5C 24.8182,24.1933 23.1516,24.1933 21.5,25.5C 21.5,25.1667 21.5,24.8333 21.5,24.5C 25.0732,22.2155 28.7399,20.2155 32.5,18.5 Z"/></g>
<g><path style="opacity:0.176" fill="#7b337d" d="M 21.5,24.5 C 21.5,24.8333 21.5,25.1667 21.5,25.5C 19.5,27.1667 17.5,28.8333 15.5,30.5C 16.5,27.5 18.5,25.5 21.5,24.5 Z"/></g>
<g><path style="opacity:0.997" fill="#7b337d" d="M 41.5,21.5 C 37.2592,21.848 33.2592,23.0147 29.5,25C 33.2395,25.3194 36.9061,24.8194 40.5,23.5C 42.7165,23.8783 44.7165,24.545 46.5,25.5C 42.6286,25.185 38.9619,25.5184 35.5,26.5C 31.72,27.2816 28.3866,28.9483 25.5,31.5C 24.2789,30.5354 22.9456,30.702 21.5,32C 21.8333,32.3333 22.1667,32.6667 22.5,33C 21.2642,34.3875 19.9308,35.5542 18.5,36.5C 19.3029,35.5768 19.4696,34.5768 19,33.5C 17,34.1667 15.6667,35.5 15,37.5C 14.6012,37.2716 14.4346,36.9382 14.5,36.5C 15.1495,34.5648 15.4828,32.5648 15.5,30.5C 17.5,28.8333 19.5,27.1667 21.5,25.5C 23.1516,24.1933 24.8182,24.1933 26.5,25.5C 30.9691,20.1774 36.6357,18.3441 43.5,20C 42.5842,20.2784 41.9175,20.7784 41.5,21.5 Z"/></g>
<g><path style="opacity:0.992" fill="#7b337d" d="M 50.5,23.5 C 51.4972,23.4701 52.1639,23.9701 52.5,25C 49.6105,26.8918 49.9438,27.7251 53.5,27.5C 53.5,28.5 53.5,29.5 53.5,30.5C 55.099,30.2322 56.4324,30.5655 57.5,31.5C 56.6236,31.3691 55.9569,31.7025 55.5,32.5C 57.0287,33.7629 58.6954,34.7629 60.5,35.5C 60.5,35.8333 60.5,36.1667 60.5,36.5C 60.9926,38.8056 61.3259,41.139 61.5,43.5C 61.8016,46.0593 61.4682,48.3926 60.5,50.5C 60.8128,46.9581 60.4794,43.6248 59.5,40.5C 59.7709,38.6203 59.1042,37.287 57.5,36.5C 57.1667,36.5 56.8333,36.5 56.5,36.5C 56.5,35.8333 56.1667,35.5 55.5,35.5C 55.5,34.8333 55.1667,34.5 54.5,34.5C 54.5,33.8333 54.1667,33.5 53.5,33.5C 53.2178,32.2223 52.5511,31.2223 51.5,30.5C 50.9423,29.2101 49.9423,28.3768 48.5,28C 44.23,26.9246 39.8967,26.4246 35.5,26.5C 38.9619,25.5184 42.6286,25.185 46.5,25.5C 48.1992,25.6602 49.8659,25.4935 51.5,25C 50.944,24.6174 50.6107,24.1174 50.5,23.5 Z"/></g>
<g><path style="opacity:0.316" fill="#7b337d" d="M 140.5,18.5 C 142.411,18.5743 143.578,19.5743 144,21.5C 144.173,27.0158 144.673,32.3491 145.5,37.5C 145.167,38.5 144.5,39.1667 143.5,39.5C 142.672,33.3466 142.172,27.0133 142,20.5C 141.283,19.9558 140.783,19.2891 140.5,18.5 Z"/></g>
<g><path style="opacity:0.99"  fill="#7b337d" d="M 347.5,18.5 C 348.768,22.0606 348.434,25.3939 346.5,28.5C 346.852,25.9272 346.352,23.5938 345,21.5C 343.547,24.2976 342.547,27.2976 342,30.5C 340.608,32.8418 339.775,32.8418 339.5,30.5C 340.167,26.8333 340.833,23.1667 341.5,19.5C 343.265,18.5386 345.265,18.2053 347.5,18.5 Z"/></g>
<g><path style="opacity:0.063" fill="#7b337d" d="M 366.5,18.5 C 374.808,17.6333 377.808,21.1333 375.5,29C 369.658,32.5515 365.658,31.0515 363.5,24.5C 364.519,22.4893 365.519,20.4893 366.5,18.5 Z"/></g>
<g><path style="opacity:0.996" fill="#7b337d" d="M 367.5,20.5 C 371.24,19.6799 373.573,21.0132 374.5,24.5C 374.167,28.9894 371.833,30.4894 367.5,29C 364.899,26.1705 364.899,23.3371 367.5,20.5 Z"/></g>
<g><path style="opacity:0.027" fill="#7b337d" d="M 35.5,26.5 C 39.8967,26.4246 44.23,26.9246 48.5,28C 49.9423,28.3768 50.9423,29.2101 51.5,30.5C 50.8333,30.5 50.1667,30.5 49.5,30.5C 49.1583,29.6618 48.4916,29.3284 47.5,29.5C 46.5,28.1667 45.5,28.1667 44.5,29.5C 40.8019,29.5524 37.1352,29.8857 33.5,30.5C 32.8333,29.1667 32.1667,29.1667 31.5,30.5C 28.796,30.6696 27.1293,32.0029 26.5,34.5C 25.8333,34.5 25.5,34.8333 25.5,35.5C 24.8333,35.5 24.5,35.8333 24.5,36.5C 23.1667,36.8333 23.1667,37.1667 24.5,37.5C 24.5,38.1667 24.1667,38.5 23.5,38.5C 22.1667,38.8333 22.1667,39.1667 23.5,39.5C 23.5,39.8333 23.5,40.1667 23.5,40.5C 23.1667,40.5 22.8333,40.5 22.5,40.5C 21.6618,40.8417 21.3284,41.5084 21.5,42.5C 21.1667,42.5 20.8333,42.5 20.5,42.5C 20.5,41.1667 20.5,39.8333 20.5,38.5C 21.7787,35.8883 23.4453,33.5549 25.5,31.5C 28.3866,28.9483 31.72,27.2816 35.5,26.5 Z"/></g>
<g><path style="opacity:0.994" fill="#7b337d" d="M 313.5,20.5 C 314.922,20.7496 315.922,21.583 316.5,23C 314.352,25.0749 314.018,27.4082 315.5,30C 313.085,31.4653 312.085,33.632 312.5,36.5C 311.252,35.6661 310.585,34.3328 310.5,32.5C 310.966,29.5078 311.299,26.5078 311.5,23.5C 311.427,21.9731 312.094,20.9731 313.5,20.5 Z"/></g>
<g><path style="opacity:0.263" fill="#7b337d" d="M 196.5,28.5 C 193.688,25.1614 194.021,21.9947 197.5,19C 204.373,17.8374 207.54,20.6707 207,27.5C 203.689,32.2772 200.189,32.6106 196.5,28.5 Z"/></g>
<g><path style="opacity:0.996" fill="#7b337d" d="M 196.5,28.5 C 194.452,22.0456 196.786,19.5456 203.5,21C 205.775,27.8906 203.442,30.3906 196.5,28.5 Z"/></g>
<g><path style="opacity:0.996" fill="#7b337d" d="M 291.5,30.5 C 291.5,30.8333 291.5,31.1667 291.5,31.5C 292.135,34.4929 292.301,37.4929 292,40.5C 291.085,39.6721 290.419,38.6721 290,37.5C 289.308,38.0253 288.808,38.6919 288.5,39.5C 289.747,41.4971 290.581,43.4971 291,45.5C 290.292,44.6195 289.458,43.9528 288.5,43.5C 287.962,41.8828 287.629,40.2161 287.5,38.5C 287.395,32.6427 286.395,26.976 284.5,21.5C 285.822,21.33 286.989,21.6634 288,22.5C 288.186,24.9005 288.686,27.2338 289.5,29.5C 290.183,29.8627 290.85,30.1961 291.5,30.5 Z"/></g>
<g><path style="opacity:0.996" fill="#7b337d" d="M 313.5,20.5 C 317.695,19.0027 319.695,20.6694 319.5,25.5C 318.732,24.7375 318.232,23.7375 318,22.5C 317.637,25.544 317.137,28.544 316.5,31.5C 314.8,33.8884 313.466,36.5551 312.5,39.5C 312.5,38.5 312.5,37.5 312.5,36.5C 312.085,33.632 313.085,31.4653 315.5,30C 314.018,27.4082 314.352,25.0749 316.5,23C 315.922,21.583 314.922,20.7496 313.5,20.5 Z"/></g>
<g><path style="opacity:0.165" fill="#7b337d" d="M 325.5,39.5 C 324.833,39.5 324.167,39.5 323.5,39.5C 322.768,34.5593 321.435,29.8927 319.5,25.5C 319.695,20.6694 317.695,19.0027 313.5,20.5C 312.094,20.9731 311.427,21.9731 311.5,23.5C 310.833,24.8333 310.167,26.1667 309.5,27.5C 309.067,19.9233 312.4,17.2566 319.5,19.5C 322.346,25.8925 324.346,32.5592 325.5,39.5 Z"/></g>
<g><path style="opacity:0.996" fill="#7b337d" d="M 44.5,29.5 C 45.1667,30.1667 45.8333,30.8333 46.5,31.5C 41.8102,30.1871 37.4769,30.8538 33.5,33.5C 31.6916,33.4914 30.0249,33.9914 28.5,35C 26.7455,36.9364 25.0789,38.7698 23.5,40.5C 23.5,40.1667 23.5,39.8333 23.5,39.5C 23.5,39.1667 23.5,38.8333 23.5,38.5C 24.1667,38.5 24.5,38.1667 24.5,37.5C 24.5,37.1667 24.5,36.8333 24.5,36.5C 25.1667,36.5 25.5,36.1667 25.5,35.5C 26.1667,35.5 26.5,35.1667 26.5,34.5C 28.3885,33.396 30.0552,32.0627 31.5,30.5C 32.1667,30.5 32.8333,30.5 33.5,30.5C 37.1352,29.8857 40.8019,29.5524 44.5,29.5 Z"/></g>
<g><path style="opacity:0.996" fill="#7b337d" d="M 46.5,31.5 C 49.4087,32.4461 51.742,34.1128 53.5,36.5C 54.2186,38.7638 54.552,41.0971 54.5,43.5C 53.5255,42.365 52.3588,41.365 51,40.5C 50.7679,41.7375 50.2679,42.7375 49.5,43.5C 49.8633,41.0885 48.8633,39.5885 46.5,39C 46.8333,38.6667 47.1667,38.3333 47.5,38C 42.8656,36.3096 38.1989,34.8096 33.5,33.5C 37.4769,30.8538 41.8102,30.1871 46.5,31.5 Z"/></g>
<g><path style="opacity:0.992" fill="#7b337d" d="M 54.5,22.5 C 62.1316,27.0982 66.7983,33.7649 68.5,42.5C 66.7817,40.6363 65.615,38.3029 65,35.5C 64.6667,35.8333 64.3333,36.1667 64,36.5C 63.4169,34.9984 62.5836,33.6651 61.5,32.5C 60.6143,33.325 60.281,34.325 60.5,35.5C 58.6954,34.7629 57.0287,33.7629 55.5,32.5C 55.9569,31.7025 56.6236,31.3691 57.5,31.5C 58.5983,30.3991 58.765,29.0657 58,27.5C 56.1978,26.2107 55.0312,24.5441 54.5,22.5 Z"/></g>
<g><path style="opacity:0.129" fill="#7b337d" d="M 136.5,18.5 C 135.194,32.2945 135.194,45.9611 136.5,59.5C 136.328,60.4916 136.662,61.1583 137.5,61.5C 137.263,62.791 137.596,63.791 138.5,64.5C 139.45,68.4135 141.783,71.0802 145.5,72.5C 145.833,73.1667 146.167,73.8333 146.5,74.5C 141.114,72.1207 137.281,68.1207 135,62.5C 133.449,48.875 133.116,35.2083 134,21.5C 134.377,20.0577 135.21,19.0577 136.5,18.5 Z"/></g>
<g><path style="opacity:0.996" fill="#7b337d" d="M 346.5,28.5 C 346.095,31.7146 345.095,34.7146 343.5,37.5C 341.914,38.6753 340.414,40.0086 339,41.5C 338.79,39.9419 338.29,38.6085 337.5,37.5C 337.927,34.9902 338.593,32.6568 339.5,30.5C 339.775,32.8418 340.608,32.8418 342,30.5C 342.547,27.2976 343.547,24.2976 345,21.5C 346.352,23.5938 346.852,25.9272 346.5,28.5 Z"/></g>
<g><path style="opacity:0.655" fill="#7b337d" d="M 114.5,34.5 C 114.5,34.8333 114.5,35.1667 114.5,35.5C 110.466,35.5045 106.466,35.8379 102.5,36.5C 105.413,34.9976 108.58,33.9976 112,33.5C 112.671,34.2524 113.504,34.5858 114.5,34.5 Z"/></g>
<g><path style="opacity:0.196" fill="#7b337d" d="M 347.5,18.5 C 348.496,18.4142 349.329,18.7476 350,19.5C 350.667,21.5 350.667,23.5 350,25.5C 346.301,37.987 342.468,50.3204 338.5,62.5C 338.5,60.8333 338.5,59.1667 338.5,57.5C 338.5,56.8333 338.5,56.1667 338.5,55.5C 340.146,49.5918 341.813,43.5918 343.5,37.5C 345.095,34.7146 346.095,31.7146 346.5,28.5C 348.434,25.3939 348.768,22.0606 347.5,18.5 Z"/></g>
<g><path style="opacity:0.031" fill="#7b337d" d="M 406.5,35.5 C 408.134,34.8389 409.967,34.5056 412,34.5C 415.15,34.3603 417.983,35.027 420.5,36.5C 419.5,36.5 418.5,36.5 417.5,36.5C 416.833,36.5 416.167,36.5 415.5,36.5C 412.713,35.5233 409.713,35.19 406.5,35.5 Z"/></g>
<g><path style="opacity:0.996" fill="#7b337d" d="M 33.5,33.5 C 38.1989,34.8096 42.8656,36.3096 47.5,38C 47.1667,38.3333 46.8333,38.6667 46.5,39C 48.8633,39.5885 49.8633,41.0885 49.5,43.5C 48.8333,43.1667 48.1667,42.8333 47.5,42.5C 47.1667,42.5 46.8333,42.5 46.5,42.5C 46.5,41.8333 46.1667,41.5 45.5,41.5C 43.8867,39.9121 41.8867,38.9121 39.5,38.5C 32.0414,38.9755 29.0414,42.9755 30.5,50.5C 29.8333,48.1667 29.1667,45.8333 28.5,43.5C 29.9198,41.0983 31.2531,38.5983 32.5,36C 32,35.8333 31.5,35.6667 31,35.5C 28.5844,37.427 26.5844,39.7604 25,42.5C 24.5026,45.146 24.3359,47.8127 24.5,50.5C 24.9628,53.221 25.6295,55.8877 26.5,58.5C 26.1667,58.5 25.8333,58.5 25.5,58.5C 25.1667,58.5 24.8333,58.5 24.5,58.5C 24.5,57.8333 24.5,57.1667 24.5,56.5C 23.5998,51.228 23.2665,45.8947 23.5,40.5C 25.0789,38.7698 26.7455,36.9364 28.5,35C 30.0249,33.9914 31.6916,33.4914 33.5,33.5 Z M 39.5,38.5 C 41.8867,38.9121 43.8867,39.9121 45.5,41.5C 42.5701,40.701 39.5701,40.3677 36.5,40.5C 37.5,39.8333 38.5,39.1667 39.5,38.5 Z"/></g>
<g><path style="opacity:0.995" fill="#7b337d" d="M 25.5,31.5 C 23.4453,33.5549 21.7787,35.8883 20.5,38.5C 18.9666,40.6345 18.2999,43.1345 18.5,46C 18.6132,49.9475 19.2798,53.7808 20.5,57.5C 19.8333,57.5 19.1667,57.5 18.5,57.5C 18.3483,53.7218 17.3483,50.2218 15.5,47C 16.1987,43.2911 17.1987,39.7911 18.5,36.5C 19.9308,35.5542 21.2642,34.3875 22.5,33C 22.1667,32.6667 21.8333,32.3333 21.5,32C 22.9456,30.702 24.2789,30.5354 25.5,31.5 Z"/></g>
<g><path style="opacity:0.129" fill="#7b337d" d="M 46.5,18.5 C 50.5115,18.5016 54.1781,19.6683 57.5,22C 75.1842,37.8145 75.8508,54.3145 59.5,71.5C 58.0603,72.9524 56.3936,73.9524 54.5,74.5C 52.7839,74.6287 51.1172,74.962 49.5,75.5C 49.8333,74.5 50.5,73.8333 51.5,73.5C 51.8333,73.5 52.1667,73.5 52.5,73.5C 57.2044,71.3134 60.871,67.9801 63.5,63.5C 68.0521,57.4184 69.7188,50.4184 68.5,42.5C 66.7983,33.7649 62.1316,27.0982 54.5,22.5C 53.8333,22.1667 53.1667,21.8333 52.5,21.5C 50.5,20.5 48.5,19.5 46.5,18.5 Z"/></g>
<g><path style="opacity:0.58"  fill="#7b337d" d="M 151.5,35.5 C 154.385,35.1936 157.052,35.5269 159.5,36.5C 154.797,36.4372 150.13,36.7705 145.5,37.5C 147.102,35.9261 149.102,35.2594 151.5,35.5 Z"/></g>
<g><path style="opacity:0.99"  fill="#7b337d" d="M 137.5,24.5 C 138.747,29.0161 138.747,33.6828 137.5,38.5C 137.667,39.1667 137.833,39.8333 138,40.5C 138.333,39.5 138.667,38.5 139,37.5C 139.198,39.3817 139.698,41.0484 140.5,42.5C 138.007,48.5595 137.007,54.8929 137.5,61.5C 136.662,61.1583 136.328,60.4916 136.5,59.5C 136.189,47.7527 136.522,36.0861 137.5,24.5 Z"/></g>
<g><path style="opacity:0.125" fill="#7b337d" d="M 309.5,27.5 C 308.947,32.8065 307.614,37.8065 305.5,42.5C 306.053,37.1935 307.386,32.1935 309.5,27.5 Z"/></g>
<g><path style="opacity:0.224" fill="#7b337d" d="M 483.5,48.5 C 481.833,46.5 480.167,44.5 478.5,42.5C 469.979,34.4356 460.646,33.4356 450.5,39.5C 452.533,36.9872 455.199,35.4872 458.5,35C 470.703,32.7623 479.036,37.2623 483.5,48.5 Z"/></g>
<g><path style="opacity:0.392" fill="#7b337d" d="M 39.5,38.5 C 38.5,39.1667 37.5,39.8333 36.5,40.5C 35.8333,40.5 35.5,40.8333 35.5,41.5C 34.8333,41.5 34.5,41.8333 34.5,42.5C 33.8333,42.5 33.5,42.8333 33.5,43.5C 32.1667,44.1667 32.1667,44.8333 33.5,45.5C 33.5,46.8333 33.5,48.1667 33.5,49.5C 32.1667,50.1667 32.1667,50.8333 33.5,51.5C 33.5,52.1667 33.8333,52.5 34.5,52.5C 34.5,53.1667 34.8333,53.5 35.5,53.5C 35.6107,54.1174 35.944,54.6174 36.5,55C 38.4727,55.4955 40.4727,55.6621 42.5,55.5C 42.5,56.1667 42.5,56.8333 42.5,57.5C 36.9756,57.7391 32.9756,55.4057 30.5,50.5C 29.0414,42.9755 32.0414,38.9755 39.5,38.5 Z"/></g>
<g><path style="opacity:0.996" fill="#7b337d" d="M 234.5,27.5 C 235.167,27.5 235.833,27.5 236.5,27.5C 236.19,30.7131 236.523,33.7131 237.5,36.5C 239.857,36.3367 242.19,36.5034 244.5,37C 247.134,39.2933 247.134,41.46 244.5,43.5C 241.833,43.5 239.167,43.5 236.5,43.5C 236.5,49.8333 236.5,56.1667 236.5,62.5C 235.833,62.5 235.5,62.1667 235.5,61.5C 235.69,50.1435 235.356,38.8102 234.5,27.5 Z"/></g>
<g><path style="opacity:0.996" fill="#7b337d" d="M 478.5,42.5 C 478.307,45.4747 479.307,47.9747 481.5,50C 479.987,52.0226 478.654,51.8559 477.5,49.5C 476.893,49.6236 476.56,49.9569 476.5,50.5C 475.662,50.1583 475.328,49.4916 475.5,48.5C 475.762,47.0222 475.429,45.6888 474.5,44.5C 470.576,42.1173 466.409,40.4506 462,39.5C 458.646,41.4525 455.146,43.1191 451.5,44.5C 450.818,43.7573 450.151,43.0906 449.5,42.5C 450.11,41.609 450.443,40.609 450.5,39.5C 460.646,33.4356 469.979,34.4356 478.5,42.5 Z"/></g>
<g><path style="opacity:0.999" fill="#7b337d" d="M 162.5,39.5 C 164.027,39.427 165.027,40.0937 165.5,41.5C 163.007,41.1307 162.34,41.7973 163.5,43.5C 161.565,42.8505 159.565,42.5172 157.5,42.5C 144.253,43.9956 139.92,50.9956 144.5,63.5C 143.432,64.4345 142.099,64.7678 140.5,64.5C 140.5,63.1667 140.5,61.8333 140.5,60.5C 140.335,56.8183 140.501,53.1516 141,49.5C 143.317,47.1141 145.151,44.4475 146.5,41.5C 151.625,38.797 156.958,38.1303 162.5,39.5 Z"/></g>
<g><path style="opacity:0.993" fill="#7b337d" d="M 199.5,36.5 C 201.292,36.366 202.958,36.6993 204.5,37.5C 204.828,49.3453 204.495,61.012 203.5,72.5C 202.698,71.0484 202.198,69.3817 202,67.5C 201.667,58.5 201.333,49.5 201,40.5C 200.59,39.0993 200.09,37.766 199.5,36.5 Z"/></g>
<g><path style="opacity:0.996" fill="#7b337d" d="M 234.5,27.5 C 235.356,38.8102 235.69,50.1435 235.5,61.5C 234.833,54.9881 234.167,48.3214 233.5,41.5C 232.832,43.9688 232.165,46.3021 231.5,48.5C 230.899,41.7113 231.566,35.2113 233.5,29C 232.269,27.8173 232.269,26.6507 233.5,25.5C 233.787,26.2003 234.12,26.8669 234.5,27.5 Z"/></g>
<g><path style="opacity:0.981" fill="#7b337d" d="M 311.5,23.5 C 311.299,26.5078 310.966,29.5078 310.5,32.5C 310.585,34.3328 311.252,35.6661 312.5,36.5C 312.5,37.5 312.5,38.5 312.5,39.5C 311.868,43.7024 310.868,47.7024 309.5,51.5C 308.71,50.3915 308.21,49.0581 308,47.5C 306.069,50.4879 304.236,53.4879 302.5,56.5C 302.5,55.5 302.5,54.5 302.5,53.5C 302.5,53.1667 302.5,52.8333 302.5,52.5C 304.68,49.619 305.68,46.2856 305.5,42.5C 307.614,37.8065 308.947,32.8065 309.5,27.5C 310.167,26.1667 310.833,24.8333 311.5,23.5 Z"/></g>
<g><path style="opacity:0.988" fill="#7b337d" d="M 319.5,25.5 C 321.435,29.8927 322.768,34.5593 323.5,39.5C 324.75,42.006 325.416,44.6726 325.5,47.5C 323.786,44.5077 321.953,41.5077 320,38.5C 320.614,40.5395 320.448,42.5395 319.5,44.5C 319.06,42.1561 318.06,40.1561 316.5,38.5C 316.5,38.1667 316.5,37.8333 316.5,37.5C 316.5,35.5 316.5,33.5 316.5,31.5C 317.137,28.544 317.637,25.544 318,22.5C 318.232,23.7375 318.732,24.7375 319.5,25.5 Z"/></g>
<g><path style="opacity:0.122" fill="#7b337d" d="M 323.5,39.5 C 324.167,39.5 324.833,39.5 325.5,39.5C 327.149,45.0937 328.649,50.7604 330,56.5C 330.278,55.5842 330.778,54.9175 331.5,54.5C 331.5,55.5 331.5,56.5 331.5,57.5C 331.5,58.1667 331.5,58.8333 331.5,59.5C 330.778,59.9175 330.278,60.5842 330,61.5C 329.434,59.2774 328.6,57.2774 327.5,55.5C 327.44,52.6592 326.774,49.9925 325.5,47.5C 325.416,44.6726 324.75,42.006 323.5,39.5 Z"/></g>
<g><path style="opacity:0.156" fill="#7b337d" d="M 373.5,35.5 C 374.79,36.0577 375.623,37.0577 376,38.5C 376.667,49.8333 376.667,61.1667 376,72.5C 374.309,76.2127 371.475,77.3794 367.5,76C 365.681,74.5847 365.015,73.0847 365.5,71.5C 365.833,71.5 366.167,71.5 366.5,71.5C 367.6,75.6466 369.6,76.3133 372.5,73.5C 373.495,61.6783 373.828,49.6783 373.5,37.5C 373.5,36.8333 373.5,36.1667 373.5,35.5 Z"/></g>
<g><path style="opacity:0.996" fill="#7b337d" d="M 28.5,43.5 C 28.6641,46.1873 28.4974,48.854 28,51.5C 26.9887,50.6634 25.8221,50.33 24.5,50.5C 24.3359,47.8127 24.5026,45.146 25,42.5C 26.5844,39.7604 28.5844,37.427 31,35.5C 31.5,35.6667 32,35.8333 32.5,36C 31.2531,38.5983 29.9198,41.0983 28.5,43.5 Z"/></g>
<g><path style="opacity:0.125" fill="#7b337d" d="M 36.5,40.5 C 39.5701,40.3677 42.5701,40.701 45.5,41.5C 46.1667,41.5 46.5,41.8333 46.5,42.5C 46.3284,43.4916 46.6618,44.1583 47.5,44.5C 47.5,46.5 47.5,48.5 47.5,50.5C 46.6618,50.8417 46.3284,51.5084 46.5,52.5C 45.8333,52.5 45.5,52.8333 45.5,53.5C 42.1667,54.8333 38.8333,54.8333 35.5,53.5C 34.8333,53.5 34.5,53.1667 34.5,52.5C 33.8333,52.5 33.5,52.1667 33.5,51.5C 33.5,50.8333 33.5,50.1667 33.5,49.5C 33.5,48.1667 33.5,46.8333 33.5,45.5C 33.5,44.8333 33.5,44.1667 33.5,43.5C 34.1667,43.5 34.5,43.1667 34.5,42.5C 35.1667,42.5 35.5,42.1667 35.5,41.5C 36.1667,41.5 36.5,41.1667 36.5,40.5 Z"/></g>
<g><path style="opacity:0.993" fill="#7b337d" d="M 143.5,39.5 C 144.5,39.1667 145.167,38.5 145.5,37.5C 150.13,36.7705 154.797,36.4372 159.5,36.5C 159.833,36.5 160.167,36.5 160.5,36.5C 161.551,37.2223 162.218,38.2223 162.5,39.5C 156.958,38.1303 151.625,38.797 146.5,41.5C 144.5,41.8333 142.5,42.1667 140.5,42.5C 139.698,41.0484 139.198,39.3817 139,37.5C 138.667,38.5 138.333,39.5 138,40.5C 137.833,39.8333 137.667,39.1667 137.5,38.5C 138.747,33.6828 138.747,29.0161 137.5,24.5C 137.38,21.7952 138.38,21.1285 140.5,22.5C 141.167,28.5 141.833,34.5 142.5,40.5C 143.107,40.3764 143.44,40.0431 143.5,39.5 Z"/></g>
<g><path style="opacity:0.196" fill="#7b337d" d="M 151.5,35.5 C 163.947,33.3932 172.447,38.3932 177,50.5C 177.939,55.1355 177.439,59.4689 175.5,63.5C 175.5,62.1667 175.5,60.8333 175.5,59.5C 176.241,47.9613 171.241,40.2946 160.5,36.5C 160.167,36.5 159.833,36.5 159.5,36.5C 157.052,35.5269 154.385,35.1936 151.5,35.5 Z"/></g>
<g><path style="opacity:0.989" fill="#7b337d" d="M 337.5,37.5 C 338.29,38.6085 338.79,39.9419 339,41.5C 340.414,40.0086 341.914,38.6753 343.5,37.5C 341.813,43.5918 340.146,49.5918 338.5,55.5C 338.224,51.2609 338.057,46.9276 338,42.5C 337.617,41.944 337.117,41.6107 336.5,41.5C 336.232,39.901 336.566,38.5676 337.5,37.5 Z"/></g>
<g><path style="opacity:0.996" fill="#7b337d" d="M 114.5,35.5 C 115.752,37.3388 115.752,39.1722 114.5,41C 107.991,41.089 102.657,43.589 98.5,48.5C 98.4809,46.9397 98.1476,45.4397 97.5,44C 99.3735,41.6286 101.04,39.1286 102.5,36.5C 106.466,35.8379 110.466,35.5045 114.5,35.5 Z"/></g>
<g><path style="opacity:0.996" fill="#7b337d" d="M 199.5,36.5 C 200.09,37.766 200.59,39.0993 201,40.5C 201.333,49.5 201.667,58.5 202,67.5C 202.198,69.3817 202.698,71.0484 203.5,72.5C 202.952,75.0838 201.285,76.0838 198.5,75.5C 198.013,74.5266 197.513,73.5266 197,72.5C 196.333,61.1667 196.333,49.8333 197,38.5C 197.417,37.244 198.25,36.5774 199.5,36.5 Z"/></g>
<g><path style="opacity:0.075" fill="#7b337d" d="M 237.5,24.5 C 237.5,28.5 237.5,32.5 237.5,36.5C 236.523,33.7131 236.19,30.7131 236.5,27.5C 235.677,23.081 233.51,22.4144 230,25.5C 229.333,38.1667 229.333,50.8333 230,63.5C 230.232,64.7375 230.732,65.7375 231.5,66.5C 233.091,69.4309 235.091,72.0976 237.5,74.5C 233.515,72.6791 230.681,69.6791 229,65.5C 228.333,51.8333 228.333,38.1667 229,24.5C 231.919,20.6544 234.753,20.6544 237.5,24.5 Z"/></g>
<g><path style="opacity:0.039" fill="#7b337d" d="M 316.5,31.5 C 316.5,33.5 316.5,35.5 316.5,37.5C 313.469,46.609 310.802,55.9423 308.5,65.5C 307.833,65.8333 307.167,66.1667 306.5,66.5C 306.5,65.1667 306.5,63.8333 306.5,62.5C 308.074,59.0935 309.074,55.4268 309.5,51.5C 310.868,47.7024 311.868,43.7024 312.5,39.5C 313.466,36.5551 314.8,33.8884 316.5,31.5 Z"/></g>
<g><path style="opacity:0.994" fill="#7b337d" d="M 417.5,36.5 C 418.5,36.5 419.5,36.5 420.5,36.5C 421.976,38.5 423.809,40.1666 426,41.5C 427.08,44.2371 426.246,45.9037 423.5,46.5C 421.484,45.8224 419.484,45.1557 417.5,44.5C 417.389,43.8826 417.056,43.3826 416.5,43C 413.167,42.3333 409.833,42.3333 406.5,43C 404.808,44.4007 404.141,46.2341 404.5,48.5C 403.609,47.8902 402.609,47.5569 401.5,47.5C 401.215,45.712 401.548,44.0453 402.5,42.5C 408.458,42.449 413.458,40.449 417.5,36.5 Z"/></g>
<g><path style="opacity:0.996" fill="#7b337d" d="M 18.5,36.5 C 17.1987,39.7911 16.1987,43.2911 15.5,47C 17.3483,50.2218 18.3483,53.7218 18.5,57.5C 18.5,59.1667 18.5,60.8333 18.5,62.5C 17.5416,62.0472 16.7083,61.3805 16,60.5C 15.2729,56.3575 14.2729,52.3575 13,48.5C 12.3478,44.2439 12.8478,40.2439 14.5,36.5C 14.4346,36.9382 14.6012,37.2716 15,37.5C 15.6667,35.5 17,34.1667 19,33.5C 19.4696,34.5768 19.3029,35.5768 18.5,36.5 Z"/></g>
<g><path style="opacity:0.008" fill="#7b337d" d="M 57.5,40.5 C 57.8333,40.5 58.1667,40.5 58.5,40.5C 58.8333,40.5 59.1667,40.5 59.5,40.5C 60.4794,43.6248 60.8128,46.9581 60.5,50.5C 60.5,51.1667 60.1667,51.5 59.5,51.5C 59.1667,51.5 58.8333,51.5 58.5,51.5C 58.577,47.7852 58.2436,44.1185 57.5,40.5 Z"/></g>
<g><path style="opacity:0.294" fill="#7b337d" d="M 204.5,36.5 C 205.117,36.6107 205.617,36.944 206,37.5C 206.667,49.5 206.667,61.5 206,73.5C 203.93,76.4076 201.43,77.0743 198.5,75.5C 201.285,76.0838 202.952,75.0838 203.5,72.5C 204.495,61.012 204.828,49.3453 204.5,37.5C 204.5,37.1667 204.5,36.8333 204.5,36.5 Z"/></g>
<g><path style="opacity:0.996" fill="#7b337d" d="M 369.5,36.5 C 370.959,36.4326 372.292,36.7659 373.5,37.5C 373.828,49.6783 373.495,61.6783 372.5,73.5C 371.167,73.5 369.833,73.5 368.5,73.5C 368.206,61.1167 368.54,48.7834 369.5,36.5 Z"/></g>
<g><path style="opacity:0.251" fill="#7b337d" d="M 114.5,34.5 C 115.496,34.4142 116.329,34.7476 117,35.5C 117.667,37.5 117.667,39.5 117,41.5C 112.714,42.615 108.548,44.115 104.5,46C 102.383,47.7309 100.883,49.8976 100,52.5C 99.7998,59.8826 99.2998,67.2159 98.5,74.5C 96.2712,76.553 93.9379,76.8863 91.5,75.5C 93.099,75.7678 94.4324,75.4345 95.5,74.5C 96.1667,74.5 96.5,74.1667 96.5,73.5C 97.291,65.3196 97.9576,56.9863 98.5,48.5C 102.657,43.589 107.991,41.089 114.5,41C 115.752,39.1722 115.752,37.3388 114.5,35.5C 114.5,35.1667 114.5,34.8333 114.5,34.5 Z"/></g>
<g><path style="opacity:0.998" fill="#7b337d" d="M 146.5,41.5 C 145.151,44.4475 143.317,47.1141 141,49.5C 140.501,53.1516 140.335,56.8183 140.5,60.5C 139.655,61.6715 138.989,63.0048 138.5,64.5C 137.596,63.791 137.263,62.791 137.5,61.5C 137.007,54.8929 138.007,48.5595 140.5,42.5C 142.5,42.1667 144.5,41.8333 146.5,41.5 Z"/></g>
<g><path style="opacity:0.047" fill="#7b337d" d="M 204.5,36.5 C 204.5,36.8333 204.5,37.1667 204.5,37.5C 202.958,36.6993 201.292,36.366 199.5,36.5C 198.25,36.5774 197.417,37.244 197,38.5C 196.333,49.8333 196.333,61.1667 197,72.5C 197.513,73.5266 198.013,74.5266 198.5,75.5C 197.25,75.4226 196.417,74.756 196,73.5C 195.333,61.5 195.333,49.5 196,37.5C 197.028,35.4841 198.695,34.4841 201,34.5C 202.699,34.3866 203.866,35.0532 204.5,36.5 Z"/></g>
<g><path style="opacity:0.994" fill="#7b337d" d="M 325.5,47.5 C 326.774,49.9925 327.44,52.6592 327.5,55.5C 327.229,57.3117 326.562,58.9783 325.5,60.5C 323.232,56.1663 322.232,51.4996 322.5,46.5C 321.5,46.5 320.5,46.5 319.5,46.5C 319.5,45.8333 319.5,45.1667 319.5,44.5C 320.448,42.5395 320.614,40.5395 320,38.5C 321.953,41.5077 323.786,44.5077 325.5,47.5 Z"/></g>
<g><path style="opacity:0.966" fill="#7b337d" d="M 369.5,36.5 C 368.54,48.7834 368.206,61.1167 368.5,73.5C 369.833,73.5 371.167,73.5 372.5,73.5C 369.6,76.3133 367.6,75.6466 366.5,71.5C 366.333,60.1618 366.5,48.8284 367,37.5C 367.671,36.7476 368.504,36.4142 369.5,36.5 Z"/></g>
<g><path style="opacity:0.996" fill="#7b337d" d="M 369.5,41.5 C 370.117,41.6107 370.617,41.944 371,42.5C 371.832,52.5166 371.666,62.5166 370.5,72.5C 369.501,62.1881 369.168,51.8548 369.5,41.5 Z"/></g>
<g><path style="opacity:0.996" fill="#7b337d" d="M 475.5,48.5 C 474.078,47.075 472.411,46.075 470.5,45.5C 470.047,44.5416 469.381,43.7083 468.5,43C 461.936,41.5759 456.602,43.4093 452.5,48.5C 451.883,48.6107 451.383,48.944 451,49.5C 450.502,52.4816 450.335,55.4816 450.5,58.5C 449.238,54.8118 449.238,50.9785 450.5,47C 449.99,45.1739 449.156,45.0072 448,46.5C 446.526,52.5541 446.026,58.5541 446.5,64.5C 445.833,64.1667 445.167,63.8333 444.5,63.5C 443.537,59.204 443.371,54.8706 444,50.5C 445.104,47.2788 446.937,44.6122 449.5,42.5C 450.151,43.0906 450.818,43.7573 451.5,44.5C 455.146,43.1191 458.646,41.4525 462,39.5C 466.409,40.4506 470.576,42.1173 474.5,44.5C 475.429,45.6888 475.762,47.0222 475.5,48.5 Z"/></g>
<g><path style="opacity:0.973" fill="#7b337d" d="M 37.5,41.5 C 45.1626,41.8457 47.1626,45.3457 43.5,52C 34.0508,52.8661 32.0508,49.3661 37.5,41.5 Z"/></g>
<g><path style="opacity:0.996" fill="#7b337d" d="M 415.5,36.5 C 416.167,36.5 416.833,36.5 417.5,36.5C 413.458,40.449 408.458,42.449 402.5,42.5C 401.548,44.0453 401.215,45.712 401.5,47.5C 401.33,48.8221 401.663,49.9887 402.5,51C 401.244,51.4169 400.577,52.2502 400.5,53.5C 399.833,53.5 399.5,53.1667 399.5,52.5C 397.498,40.1283 402.831,34.795 415.5,36.5 Z"/></g>
<g><path style="opacity:0.194" fill="#7b337d" d="M 12.5,36.5 C 10.882,44.2996 11.382,51.9662 14,59.5C 14.6972,61.5844 15.8639,63.2511 17.5,64.5C 18.4151,66.7541 19.7484,68.7541 21.5,70.5C 16.3852,67.196 12.8852,62.5294 11,56.5C 10.3333,50.5 10.3333,44.5 11,38.5C 11.2784,37.5842 11.7784,36.9175 12.5,36.5 Z"/></g>
<g><path style="opacity:0.995" fill="#7b337d" d="M 53.5,36.5 C 57.4592,41.9383 58.2925,47.9383 56,54.5C 55.6174,55.056 55.1174,55.3893 54.5,55.5C 53.791,54.596 52.791,54.2627 51.5,54.5C 51.3466,48.6761 52.0133,48.3428 53.5,53.5C 54.5529,52.5617 55.2196,51.395 55.5,50C 54.7135,47.9011 54.3801,45.7345 54.5,43.5C 54.552,41.0971 54.2186,38.7638 53.5,36.5 Z"/></g>
<g><path style="opacity:0.451" fill="#7b337d" d="M 44.5,29.5 C 45.5,29.5 46.5,29.5 47.5,29.5C 47.8417,30.3382 48.5084,30.6716 49.5,30.5C 50.4363,31.9744 51.7697,32.9744 53.5,33.5C 54.1667,33.5 54.5,33.8333 54.5,34.5C 55.1667,34.5 55.5,34.8333 55.5,35.5C 56.1667,35.5 56.5,35.8333 56.5,36.5C 56.8333,39.1667 57.1667,39.1667 57.5,36.5C 59.1042,37.287 59.7709,38.6203 59.5,40.5C 59.1667,40.5 58.8333,40.5 58.5,40.5C 58.1667,39.1667 57.8333,39.1667 57.5,40.5C 58.2436,44.1185 58.577,47.7852 58.5,51.5C 58.3284,52.4916 58.6618,53.1583 59.5,53.5C 59.7373,54.791 59.404,55.791 58.5,56.5C 58.1667,53.8333 57.8333,53.8333 57.5,56.5C 56.6618,56.8417 56.3284,57.5084 56.5,58.5C 55.8333,58.5 55.5,58.8333 55.5,59.5C 54.8333,59.5 54.5,59.8333 54.5,60.5C 53.8333,60.5 53.5,60.8333 53.5,61.5C 52.8333,61.5 52.5,61.8333 52.5,62.5C 51.8333,62.5 51.5,62.8333 51.5,63.5C 50.5084,63.3284 49.8417,63.6618 49.5,64.5C 48.5084,64.3284 47.8417,64.6618 47.5,65.5C 46.5084,65.3284 45.8417,65.6618 45.5,66.5C 45.5,67.1667 45.1667,67.5 44.5,67.5C 41.7131,66.5233 38.7131,66.19 35.5,66.5C 34.791,65.596 33.791,65.2627 32.5,65.5C 32.5,65.1667 32.5,64.8333 32.5,64.5C 33.5,64.5 34.5,64.5 35.5,64.5C 39.0419,64.8128 42.3752,64.4794 45.5,63.5C 46.1667,63.1667 46.8333,62.8333 47.5,62.5C 50.8333,61.1667 53.1667,58.8333 54.5,55.5C 55.1174,55.3893 55.6174,55.056 56,54.5C 58.2925,47.9383 57.4592,41.9383 53.5,36.5C 51.742,34.1128 49.4087,32.4461 46.5,31.5C 45.8333,30.8333 45.1667,30.1667 44.5,29.5 Z"/></g>
<g><path style="opacity:0.995" fill="#7b337d" d="M 235.5,61.5 C 235.5,62.1667 235.833,62.5 236.5,62.5C 236.833,62.5 237.167,62.5 237.5,62.5C 237.5,63.1667 237.5,63.8333 237.5,64.5C 237.785,66.288 237.452,67.9547 236.5,69.5C 235.06,68.0476 233.394,67.0476 231.5,66.5C 231.5,60.5 231.5,54.5 231.5,48.5C 232.165,46.3021 232.832,43.9688 233.5,41.5C 234.167,48.3214 234.833,54.9881 235.5,61.5 Z"/></g>
<g><path style="opacity:0.995" fill="#7b337d" d="M 291.5,31.5 C 293.332,37.0084 294.999,42.675 296.5,48.5C 296.653,54.3239 295.987,54.6572 294.5,49.5C 294.167,50.5 293.833,51.5 293.5,52.5C 294.21,55.7992 294.543,59.1326 294.5,62.5C 293.833,61.8333 293.167,61.1667 292.5,60.5C 291.949,54.6315 290.616,48.9649 288.5,43.5C 289.458,43.9528 290.292,44.6195 291,45.5C 290.581,43.4971 289.747,41.4971 288.5,39.5C 288.808,38.6919 289.308,38.0253 290,37.5C 290.419,38.6721 291.085,39.6721 292,40.5C 292.301,37.4929 292.135,34.4929 291.5,31.5 Z"/></g>
<g><path style="opacity:0.224" fill="#7b337d" d="M 305.5,42.5 C 305.68,46.2856 304.68,49.619 302.5,52.5C 302.723,48.8379 303.723,45.5046 305.5,42.5 Z"/></g>
<g><path style="opacity:0.055" fill="#7b337d" d="M 396.5,42.5 C 396.337,44.8568 396.503,47.1902 397,49.5C 397.377,50.9423 398.21,51.9423 399.5,52.5C 399.5,53.1667 399.833,53.5 400.5,53.5C 400.833,54.1667 401.167,54.8333 401.5,55.5C 395.778,52.7234 394.112,48.3901 396.5,42.5 Z"/></g>
<g><path style="opacity:0.098" fill="#7b337d" d="M 417.5,44.5 C 413.757,43.0111 410.09,43.1777 406.5,45C 405.388,47.1079 406.054,48.6079 408.5,49.5C 408.158,50.3382 407.492,50.6716 406.5,50.5C 405.5,50.1667 404.833,49.5 404.5,48.5C 404.141,46.2341 404.808,44.4007 406.5,43C 409.833,42.3333 413.167,42.3333 416.5,43C 417.056,43.3826 417.389,43.8826 417.5,44.5 Z"/></g>
<g><path style="opacity:0.204" fill="#7b337d" d="M 420.5,36.5 C 426.843,37.9278 428.843,41.4278 426.5,47C 422.858,48.0698 419.858,47.2364 417.5,44.5C 419.484,45.1557 421.484,45.8224 423.5,46.5C 426.246,45.9037 427.08,44.2371 426,41.5C 423.809,40.1666 421.976,38.5 420.5,36.5 Z"/></g>
<g><path style="opacity:0.165" fill="#7b337d" d="M 450.5,39.5 C 450.443,40.609 450.11,41.609 449.5,42.5C 446.937,44.6122 445.104,47.2788 444,50.5C 443.371,54.8706 443.537,59.204 444.5,63.5C 441.363,55.8537 442.196,48.5203 447,41.5C 447.816,40.1772 448.983,39.5106 450.5,39.5 Z"/></g>
<g><path style="opacity:0.125" fill="#7b337d" d="M 470.5,45.5 C 458.463,42.1915 452.463,46.8581 452.5,59.5C 451.285,55.9674 451.285,52.3008 452.5,48.5C 456.602,43.4093 461.936,41.5759 468.5,43C 469.381,43.7083 470.047,44.5416 470.5,45.5 Z"/></g>
<g><path style="opacity:0.098" fill="#7b337d" d="M 283.5,18.5 C 282.445,21.0728 282.278,23.7395 283,26.5C 284.63,30.5711 286.13,34.5711 287.5,38.5C 287.629,40.2161 287.962,41.8828 288.5,43.5C 290.616,48.9649 291.949,54.6315 292.5,60.5C 288.005,48.1294 284.005,35.4627 280.5,22.5C 280.561,20.3472 281.561,19.0138 283.5,18.5 Z"/></g>
<g><path style="opacity:0.059" fill="#7b337d" d="M 316.5,38.5 C 318.06,40.1561 319.06,42.1561 319.5,44.5C 319.5,45.1667 319.5,45.8333 319.5,46.5C 320.219,48.7638 320.552,51.0971 320.5,53.5C 318.409,48.8094 317.076,43.8094 316.5,38.5 Z"/></g>
<g><path style="opacity:0.914" fill="#7b337d" d="M 406.5,35.5 C 409.713,35.19 412.713,35.5233 415.5,36.5C 402.831,34.795 397.498,40.1283 399.5,52.5C 398.21,51.9423 397.377,50.9423 397,49.5C 396.503,47.1902 396.337,44.8568 396.5,42.5C 398.44,38.2341 401.773,35.9007 406.5,35.5 Z"/></g>
<g><path style="opacity:0.996" fill="#7b337d" d="M 68.5,42.5 C 69.7188,50.4184 68.0521,57.4184 63.5,63.5C 64.6741,60.0573 65.6741,56.5573 66.5,53C 66.1667,52.8333 65.8333,52.6667 65.5,52.5C 64.7492,53.376 64.2492,54.376 64,55.5C 63.8029,50.9145 63.3029,46.4145 62.5,42C 63.5304,39.675 62.8637,37.8417 60.5,36.5C 60.5,36.1667 60.5,35.8333 60.5,35.5C 60.281,34.325 60.6143,33.325 61.5,32.5C 62.5836,33.6651 63.4169,34.9984 64,36.5C 64.3333,36.1667 64.6667,35.8333 65,35.5C 65.615,38.3029 66.7817,40.6363 68.5,42.5 Z"/></g>
<g><path style="opacity:0.996" fill="#7b337d" d="M 15.5,30.5 C 15.4828,32.5648 15.1495,34.5648 14.5,36.5C 12.8478,40.2439 12.3478,44.2439 13,48.5C 14.2729,52.3575 15.2729,56.3575 16,60.5C 16.7083,61.3805 17.5416,62.0472 18.5,62.5C 18.1667,63.1667 17.8333,63.8333 17.5,64.5C 15.8639,63.2511 14.6972,61.5844 14,59.5C 11.382,51.9662 10.882,44.2996 12.5,36.5C 12.9925,34.1815 13.9925,32.1815 15.5,30.5 Z"/></g>
<g><path style="opacity:0.388" fill="#7b337d" d="M 22.5,40.5 C 22.8333,40.5 23.1667,40.5 23.5,40.5C 23.2665,45.8947 23.5998,51.228 24.5,56.5C 23.8333,56.1667 23.1667,55.8333 22.5,55.5C 22.5,54.5 22.5,53.5 22.5,52.5C 22.5,51.8333 22.1667,51.5 21.5,51.5C 21.5,48.5 21.5,45.5 21.5,42.5C 22.3382,42.1583 22.6716,41.4916 22.5,40.5 Z"/></g>
<g><path style="opacity:0.102" fill="#7b337d" d="M 47.5,42.5 C 48.1667,42.8333 48.8333,43.1667 49.5,43.5C 49.8016,46.0593 49.4682,48.3926 48.5,50.5C 48.7947,48.2646 48.4614,46.2646 47.5,44.5C 47.5,43.8333 47.5,43.1667 47.5,42.5 Z"/></g>
<g><path style="opacity:0.995" fill="#7b337d" d="M 102.5,36.5 C 101.04,39.1286 99.3735,41.6286 97.5,44C 98.1476,45.4397 98.4809,46.9397 98.5,48.5C 97.9576,56.9863 97.291,65.3196 96.5,73.5C 96.6662,67.4908 96.4995,61.4908 96,55.5C 95.1495,52.3876 93.9828,52.0542 92.5,54.5C 91.5037,60.7985 91.1703,67.1318 91.5,73.5C 90.3448,66.3451 90.1782,59.0118 91,51.5C 93.2388,46.7644 96.0722,42.4311 99.5,38.5C 99.9731,37.0937 100.973,36.427 102.5,36.5 Z"/></g>
<g><path style="opacity:0.955" fill="#7b337d" d="M 157.5,42.5 C 159.565,42.5172 161.565,42.8505 163.5,43.5C 166.112,44.2775 167.945,45.9441 169,48.5C 170.045,53.7855 169.545,58.7855 167.5,63.5C 166.833,63.8333 166.167,64.1667 165.5,64.5C 165.5,63.8333 165.5,63.1667 165.5,62.5C 167.445,60.6931 168.445,58.3598 168.5,55.5C 168.445,52.6402 167.445,50.3069 165.5,48.5C 164.128,47.4884 162.795,46.4884 161.5,45.5C 160.41,44.1429 159.076,43.1429 157.5,42.5 Z"/></g>
<g><path style="opacity:0.255" fill="#7b337d" d="M 157.5,42.5 C 159.076,43.1429 160.41,44.1429 161.5,45.5C 152.005,42.4121 146.338,45.7454 144.5,55.5C 145.433,64.4768 150.433,68.4768 159.5,67.5C 159.5,68.1667 159.167,68.5 158.5,68.5C 154.556,68.8866 150.889,68.22 147.5,66.5C 146.833,65.1667 145.833,64.1667 144.5,63.5C 139.92,50.9956 144.253,43.9956 157.5,42.5 Z"/></g>
<g><path style="opacity:0.11"  fill="#7b337d" d="M 165.5,48.5 C 167.445,50.3069 168.445,52.6402 168.5,55.5C 168.445,58.3598 167.445,60.6931 165.5,62.5C 166.762,57.8479 166.762,53.1812 165.5,48.5 Z"/></g>
<g><path style="opacity:0.196" fill="#7b337d" d="M 237.5,24.5 C 238.222,24.9175 238.722,25.5842 239,26.5C 239.498,29.4816 239.665,32.4816 239.5,35.5C 247.368,34.6722 249.701,37.6722 246.5,44.5C 244.253,45.3742 241.92,45.7076 239.5,45.5C 239.209,51.923 239.542,58.2564 240.5,64.5C 239.833,64.5 239.167,64.5 238.5,64.5C 238.167,64.5 237.833,64.5 237.5,64.5C 237.5,63.8333 237.5,63.1667 237.5,62.5C 237.5,56.5 237.5,50.5 237.5,44.5C 240.059,44.8016 242.393,44.4682 244.5,43.5C 247.134,41.46 247.134,39.2933 244.5,37C 242.19,36.5034 239.857,36.3367 237.5,36.5C 237.5,32.5 237.5,28.5 237.5,24.5 Z"/></g>
<g><path style="opacity:0.996" fill="#7b337d" d="M 401.5,47.5 C 402.609,47.5569 403.609,47.8902 404.5,48.5C 404.833,49.5 405.5,50.1667 406.5,50.5C 406.918,51.2216 407.584,51.7216 408.5,52C 407.328,52.4186 406.328,53.0853 405.5,54C 407.788,54.8221 410.122,55.4888 412.5,56C 409.493,56.3013 406.493,56.1346 403.5,55.5C 402.833,55.5 402.167,55.5 401.5,55.5C 401.167,54.8333 400.833,54.1667 400.5,53.5C 400.577,52.2502 401.244,51.4169 402.5,51C 401.663,49.9887 401.33,48.8221 401.5,47.5 Z"/></g>
<g><path style="opacity:0.129" fill="#7b337d" d="M 373.5,35.5 C 373.5,36.1667 373.5,36.8333 373.5,37.5C 372.292,36.7659 370.959,36.4326 369.5,36.5C 368.504,36.4142 367.671,36.7476 367,37.5C 366.5,48.8284 366.333,60.1618 366.5,71.5C 366.167,71.5 365.833,71.5 365.5,71.5C 364.358,60.5764 364.191,49.5764 365,38.5C 366.784,34.575 369.617,33.575 373.5,35.5 Z"/></g>
<g><path style="opacity:0.928" fill="#7b337d" d="M 478.5,42.5 C 480.167,44.5 481.833,46.5 483.5,48.5C 483.5,51.5 483.5,54.5 483.5,57.5C 483.167,57.5 482.833,57.5 482.5,57.5C 475.765,58.8265 468.932,58.8265 462,57.5C 461.28,55.8876 461.446,54.3876 462.5,53C 467.606,53.1138 472.273,52.2805 476.5,50.5C 476.56,49.9569 476.893,49.6236 477.5,49.5C 478.654,51.8559 479.987,52.0226 481.5,50C 479.307,47.9747 478.307,45.4747 478.5,42.5 Z"/></g>
<g><path style="opacity:0.996" fill="#7b337d" d="M 54.5,43.5 C 54.3801,45.7345 54.7135,47.9011 55.5,50C 55.2196,51.395 54.5529,52.5617 53.5,53.5C 52.0133,48.3428 51.3466,48.6761 51.5,54.5C 52.791,54.2627 53.791,54.596 54.5,55.5C 53.1667,58.8333 50.8333,61.1667 47.5,62.5C 47.7214,61.2652 48.3881,60.2652 49.5,59.5C 48.273,58.4096 47.4396,57.0762 47,55.5C 46.7679,56.7375 46.2679,57.7375 45.5,58.5C 44.609,57.8902 43.609,57.5569 42.5,57.5C 42.5,56.8333 42.5,56.1667 42.5,55.5C 44.0269,55.573 45.0269,54.9063 45.5,53.5C 46.1667,53.5 46.5,53.1667 46.5,52.5C 47.3382,52.1583 47.6716,51.4916 47.5,50.5C 47.8333,50.5 48.1667,50.5 48.5,50.5C 49.4682,48.3926 49.8016,46.0593 49.5,43.5C 50.2679,42.7375 50.7679,41.7375 51,40.5C 52.3588,41.365 53.5255,42.365 54.5,43.5 Z"/></g>
<g><path style="opacity:0.996" fill="#7b337d" d="M 60.5,36.5 C 62.8637,37.8417 63.5304,39.675 62.5,42C 63.3029,46.4145 63.8029,50.9145 64,55.5C 64.2492,54.376 64.7492,53.376 65.5,52.5C 65.8333,52.6667 66.1667,52.8333 66.5,53C 65.6741,56.5573 64.6741,60.0573 63.5,63.5C 62.7784,63.0825 62.2784,62.4158 62,61.5C 60.3829,62.8513 59.2162,64.518 58.5,66.5C 56.4248,67.7615 54.4248,67.5948 52.5,66C 53.056,65.6174 53.3893,65.1174 53.5,64.5C 54.1667,63.1667 55.1667,62.1667 56.5,61.5C 58.679,61.16 60.5123,60.16 62,58.5C 62.8163,53.3158 62.6497,48.3158 61.5,43.5C 61.3259,41.139 60.9926,38.8056 60.5,36.5 Z"/></g>
<g><path style="opacity:0.675" fill="#7b337d" d="M 244.5,43.5 C 242.393,44.4682 240.059,44.8016 237.5,44.5C 237.5,50.5 237.5,56.5 237.5,62.5C 237.167,62.5 236.833,62.5 236.5,62.5C 236.5,56.1667 236.5,49.8333 236.5,43.5C 239.167,43.5 241.833,43.5 244.5,43.5 Z"/></g>
<g><path style="opacity:0.996" fill="#7b337d" d="M 336.5,41.5 C 337.117,41.6107 337.617,41.944 338,42.5C 338.057,46.9276 338.224,51.2609 338.5,55.5C 334.811,58.4838 333.144,57.4838 333.5,52.5C 334.267,48.6731 335.267,45.0064 336.5,41.5 Z"/></g>
<g><path style="opacity:0.998" fill="#7b337d" d="M 482.5,57.5 C 476.139,57.1388 469.806,56.4721 463.5,55.5C 469.147,54.3907 474.813,53.8907 480.5,54C 481.305,55.1127 481.972,56.2794 482.5,57.5 Z"/></g>
<g><path style="opacity:0.924" fill="#7b337d" d="M 236.5,27.5 C 235.833,27.5 235.167,27.5 234.5,27.5C 234.12,26.8669 233.787,26.2003 233.5,25.5C 232.269,26.6507 232.269,27.8173 233.5,29C 231.566,35.2113 230.899,41.7113 231.5,48.5C 231.5,54.5 231.5,60.5 231.5,66.5C 230.732,65.7375 230.232,64.7375 230,63.5C 229.333,50.8333 229.333,38.1667 230,25.5C 233.51,22.4144 235.677,23.081 236.5,27.5 Z"/></g>
<g><path style="opacity:0.996" fill="#7b337d" d="M 296.5,48.5 C 297.733,52.0064 298.733,55.6731 299.5,59.5C 299.423,60.7498 298.756,61.5831 297.5,62C 299.154,62.6077 300.821,63.1077 302.5,63.5C 302.622,66.2574 301.455,68.2574 299,69.5C 298.425,66.7138 296.925,64.7138 294.5,63.5C 294.5,63.1667 294.5,62.8333 294.5,62.5C 294.543,59.1326 294.21,55.7992 293.5,52.5C 293.833,51.5 294.167,50.5 294.5,49.5C 295.987,54.6572 296.653,54.3239 296.5,48.5 Z"/></g>
<g><path style="opacity:0.996" fill="#7b337d" d="M 61.5,43.5 C 62.6497,48.3158 62.8163,53.3158 62,58.5C 60.5123,60.16 58.679,61.16 56.5,61.5C 57.1098,60.609 57.4431,59.609 57.5,58.5C 57.5,57.8333 57.5,57.1667 57.5,56.5C 57.8333,56.5 58.1667,56.5 58.5,56.5C 59.404,55.791 59.7373,54.791 59.5,53.5C 59.5,52.8333 59.5,52.1667 59.5,51.5C 60.1667,51.5 60.5,51.1667 60.5,50.5C 61.4682,48.3926 61.8016,46.0593 61.5,43.5 Z"/></g>
<g><path style="opacity:0.988" fill="#7b337d" d="M 160.5,36.5 C 171.241,40.2946 176.241,47.9613 175.5,59.5C 174.935,61.42 173.935,63.0867 172.5,64.5C 171.833,64.5 171.5,64.1667 171.5,63.5C 174.542,56.5074 173.709,49.8407 169,43.5C 168.184,42.1772 167.017,41.5106 165.5,41.5C 165.027,40.0937 164.027,39.427 162.5,39.5C 162.218,38.2223 161.551,37.2223 160.5,36.5 Z"/></g>
<g><path style="opacity:0.996" fill="#7b337d" d="M 408.5,49.5 C 409.708,50.2341 411.041,50.5674 412.5,50.5C 416.222,52.1982 419.889,54.1982 423.5,56.5C 420.183,55.7791 416.849,55.6124 413.5,56C 415.725,56.5611 417.725,57.5611 419.5,59C 420.598,59.7697 420.598,60.603 419.5,61.5C 417.521,59.8325 415.188,59.1658 412.5,59.5C 409.567,58.0167 406.567,56.6834 403.5,55.5C 406.493,56.1346 409.493,56.3013 412.5,56C 410.122,55.4888 407.788,54.8221 405.5,54C 406.328,53.0853 407.328,52.4186 408.5,52C 407.584,51.7216 406.918,51.2216 406.5,50.5C 407.492,50.6716 408.158,50.3382 408.5,49.5 Z"/></g>
<g><path style="opacity:0.988" fill="#7b337d" d="M 165.5,41.5 C 167.017,41.5106 168.184,42.1772 169,43.5C 173.709,49.8407 174.542,56.5074 171.5,63.5C 169.887,63.9443 168.72,64.9443 168,66.5C 167.517,65.552 167.351,64.552 167.5,63.5C 169.545,58.7855 170.045,53.7855 169,48.5C 167.945,45.9441 166.112,44.2775 163.5,43.5C 162.34,41.7973 163.007,41.1307 165.5,41.5 Z"/></g>
<g><path style="opacity:0.757" fill="#7b337d" d="M 319.5,46.5 C 320.5,46.5 321.5,46.5 322.5,46.5C 322.232,51.4996 323.232,56.1663 325.5,60.5C 326.562,58.9783 327.229,57.3117 327.5,55.5C 328.6,57.2774 329.434,59.2774 330,61.5C 330.278,60.5842 330.778,59.9175 331.5,59.5C 331.414,60.4959 331.748,61.3292 332.5,62C 331.034,62.6355 329.7,63.4688 328.5,64.5C 327.494,64.0623 327.494,63.3957 328.5,62.5C 327.635,61.4173 326.635,61.2506 325.5,62C 326.711,63.1131 326.711,64.2798 325.5,65.5C 325.977,66.4776 326.643,67.3109 327.5,68C 327.786,69.3877 327.452,70.8877 326.5,72.5C 325.239,65.9421 323.239,59.6088 320.5,53.5C 320.552,51.0971 320.219,48.7638 319.5,46.5 Z"/></g>
<g><path style="opacity:0.027" fill="#7b337d" d="M 401.5,55.5 C 402.167,55.5 402.833,55.5 403.5,55.5C 406.567,56.6834 409.567,58.0167 412.5,59.5C 408.292,59.323 404.626,57.9897 401.5,55.5 Z"/></g>
<g><path style="opacity:0.373" fill="#7b337d" d="M 452.5,48.5 C 451.285,52.3008 451.285,55.9674 452.5,59.5C 452.5,60.1667 452.5,60.8333 452.5,61.5C 451.094,61.0269 450.427,60.0269 450.5,58.5C 450.335,55.4816 450.502,52.4816 451,49.5C 451.383,48.944 451.883,48.6107 452.5,48.5 Z"/></g>
<g><path style="opacity:0.996" fill="#7b337d" d="M 47.5,62.5 C 46.8333,62.8333 46.1667,63.1667 45.5,63.5C 42.8333,63.5 40.1667,63.5 37.5,63.5C 37.281,62.325 37.6143,61.325 38.5,60.5C 40.9823,59.9329 43.3157,59.2663 45.5,58.5C 46.2679,57.7375 46.7679,56.7375 47,55.5C 47.4396,57.0762 48.273,58.4096 49.5,59.5C 48.3881,60.2652 47.7214,61.2652 47.5,62.5 Z"/></g>
<g><path style="opacity:0.996" fill="#7b337d" d="M 450.5,58.5 C 450.427,60.0269 451.094,61.0269 452.5,61.5C 453.11,62.391 453.443,63.391 453.5,64.5C 453.351,65.552 453.517,66.552 454,67.5C 455.972,68.3052 457.472,69.6385 458.5,71.5C 457.675,72.3857 456.675,72.719 455.5,72.5C 454.264,70.1725 452.264,69.0058 449.5,69C 448.117,67.7292 447.117,66.2292 446.5,64.5C 446.026,58.5541 446.526,52.5541 448,46.5C 449.156,45.0072 449.99,45.1739 450.5,47C 449.238,50.9785 449.238,54.8118 450.5,58.5 Z"/></g>
<g><path style="opacity:0.349" fill="#7b337d" d="M 25.5,58.5 C 25.8333,58.5 26.1667,58.5 26.5,58.5C 29.0745,61.2329 32.0745,63.2329 35.5,64.5C 34.5,64.5 33.5,64.5 32.5,64.5C 32.1667,64.5 31.8333,64.5 31.5,64.5C 30.7095,63.5987 29.7095,62.9321 28.5,62.5C 28.5,61.8333 28.1667,61.5 27.5,61.5C 26.8333,60.5 26.1667,59.5 25.5,58.5 Z"/></g>
<g><path style="opacity:0.996" fill="#7b337d" d="M 28.5,43.5 C 29.1667,45.8333 29.8333,48.1667 30.5,50.5C 32.9756,55.4057 36.9756,57.7391 42.5,57.5C 43.609,57.5569 44.609,57.8902 45.5,58.5C 43.3157,59.2663 40.9823,59.9329 38.5,60.5C 37.6143,61.325 37.281,62.325 37.5,63.5C 40.1667,63.5 42.8333,63.5 45.5,63.5C 42.3752,64.4794 39.0419,64.8128 35.5,64.5C 32.0745,63.2329 29.0745,61.2329 26.5,58.5C 25.6295,55.8877 24.9628,53.221 24.5,50.5C 25.8221,50.33 26.9887,50.6634 28,51.5C 28.4974,48.854 28.6641,46.1873 28.5,43.5 Z"/></g>
<g><path style="opacity:0.788" fill="#7b337d" d="M 470.5,45.5 C 472.411,46.075 474.078,47.075 475.5,48.5C 475.328,49.4916 475.662,50.1583 476.5,50.5C 472.273,52.2805 467.606,53.1138 462.5,53C 461.446,54.3876 461.28,55.8876 462,57.5C 468.932,58.8265 475.765,58.8265 482.5,57.5C 482.833,57.5 483.167,57.5 483.5,57.5C 483.5,58.5 483.5,59.5 483.5,60.5C 476.159,60.6663 468.826,60.4997 461.5,60C 459.294,57.791 458.96,55.291 460.5,52.5C 464.713,51.8055 468.879,51.1388 473,50.5C 472.942,48.5646 472.109,46.8979 470.5,45.5 Z"/></g>
<g><path style="opacity:0.118" fill="#7b337d" d="M 20.5,38.5 C 20.5,39.8333 20.5,41.1667 20.5,42.5C 20.19,45.7131 20.5233,48.7131 21.5,51.5C 22.1667,51.5 22.5,51.8333 22.5,52.5C 21.1667,53.5 21.1667,54.5 22.5,55.5C 22.427,57.0269 23.0937,58.0269 24.5,58.5C 24.5,60.5 25.5,61.5 27.5,61.5C 28.1667,61.5 28.5,61.8333 28.5,62.5C 28.8212,64.0481 29.8212,64.7148 31.5,64.5C 31.5,65.1667 31.8333,65.5 32.5,65.5C 33.209,66.404 34.209,66.7373 35.5,66.5C 38.2869,67.4767 41.2869,67.81 44.5,67.5C 45.1667,67.5 45.5,67.1667 45.5,66.5C 46.1667,66.5 46.8333,66.5 47.5,66.5C 47.3893,67.1174 47.056,67.6174 46.5,68C 42.8484,68.4986 39.1817,68.6653 35.5,68.5C 35.1667,68.5 34.8333,68.5 34.5,68.5C 28.7065,66.3848 24.0398,62.7182 20.5,57.5C 19.2798,53.7808 18.6132,49.9475 18.5,46C 18.2999,43.1345 18.9666,40.6345 20.5,38.5 Z"/></g>
<g><path style="opacity:0.22"  fill="#7b337d" d="M 412.5,59.5 C 415.188,59.1658 417.521,59.8325 419.5,61.5C 419.923,62.2646 420.257,63.0979 420.5,64C 419.685,65.6434 418.685,67.1434 417.5,68.5C 416.508,68.6716 415.842,68.3382 415.5,67.5C 417.914,66.5944 418.747,64.9278 418,62.5C 416.281,61.1312 414.448,60.1312 412.5,59.5 Z"/></g>
<g><path style="opacity:0.973" fill="#7b337d" d="M 309.5,51.5 C 309.074,55.4268 308.074,59.0935 306.5,62.5C 305.041,62.4326 303.708,62.7659 302.5,63.5C 300.821,63.1077 299.154,62.6077 297.5,62C 298.756,61.5831 299.423,60.7498 299.5,59.5C 300.222,59.9175 300.722,60.5842 301,61.5C 301.608,59.8455 302.108,58.1789 302.5,56.5C 304.236,53.4879 306.069,50.4879 308,47.5C 308.21,49.0581 308.71,50.3915 309.5,51.5 Z"/></g>
<g><path style="opacity:0.11"  fill="#7b337d" d="M 56.5,58.5 C 56.8333,58.5 57.1667,58.5 57.5,58.5C 57.4431,59.609 57.1098,60.609 56.5,61.5C 55.1667,62.1667 54.1667,63.1667 53.5,64.5C 52.8333,64.5 52.1667,64.5 51.5,64.5C 51.5,64.1667 51.5,63.8333 51.5,63.5C 52.1667,63.5 52.5,63.1667 52.5,62.5C 53.1667,62.5 53.5,62.1667 53.5,61.5C 54.1667,61.5 54.5,61.1667 54.5,60.5C 55.1667,60.5 55.5,60.1667 55.5,59.5C 56.1667,59.5 56.5,59.1667 56.5,58.5 Z"/></g>
<g><path style="opacity:0.051" fill="#7b337d" d="M 99.5,38.5 C 96.0722,42.4311 93.2388,46.7644 91,51.5C 90.1782,59.0118 90.3448,66.3451 91.5,73.5C 92.5676,74.4345 93.901,74.7678 95.5,74.5C 94.4324,75.4345 93.099,75.7678 91.5,75.5C 90.8826,75.3893 90.3826,75.056 90,74.5C 89.3333,66.5 89.3333,58.5 90,50.5C 91.5233,45.0809 94.69,41.0809 99.5,38.5 Z"/></g>
<g><path style="opacity:0.165" fill="#7b337d" d="M 165.5,62.5 C 165.5,63.1667 165.5,63.8333 165.5,64.5C 163.947,66.385 161.947,67.385 159.5,67.5C 161.475,65.863 163.475,64.1964 165.5,62.5 Z"/></g>
<g><path style="opacity:0.995" fill="#7b337d" d="M 167.5,63.5 C 167.351,64.552 167.517,65.552 168,66.5C 168.72,64.9443 169.887,63.9443 171.5,63.5C 171.5,64.1667 171.833,64.5 172.5,64.5C 170.089,69.71 166.089,73.0433 160.5,74.5C 159.828,73.7326 158.995,73.0659 158,72.5C 157.282,73.4506 156.449,73.6172 155.5,73C 154.167,72.3333 154.167,71.6667 155.5,71C 154.833,70.6667 154.167,70.3333 153.5,70C 155.382,69.8019 157.048,69.3019 158.5,68.5C 159.167,68.5 159.5,68.1667 159.5,67.5C 161.947,67.385 163.947,66.385 165.5,64.5C 166.167,64.1667 166.833,63.8333 167.5,63.5 Z"/></g>
<g><path style="opacity:0.278" fill="#7b337d" d="M 410.5,68.5 C 406.838,68.9974 403.838,67.8307 401.5,65C 399.527,64.5045 397.527,64.3379 395.5,64.5C 396.374,63.4749 397.541,62.8082 399,62.5C 402.873,64.6844 406.707,66.6844 410.5,68.5 Z"/></g>
<g><path style="opacity:0.993" fill="#7b337d" d="M 423.5,56.5 C 426.942,59.3285 428.109,62.9951 427,67.5C 425.594,70.4086 423.428,72.4086 420.5,73.5C 420.961,71.0835 422.294,69.2502 424.5,68C 424.167,67.5 423.833,67 423.5,66.5C 421.827,68.0863 419.827,68.7529 417.5,68.5C 418.685,67.1434 419.685,65.6434 420.5,64C 420.257,63.0979 419.923,62.2646 419.5,61.5C 420.598,60.603 420.598,59.7697 419.5,59C 417.725,57.5611 415.725,56.5611 413.5,56C 416.849,55.6124 420.183,55.7791 423.5,56.5 Z"/></g>
<g><path style="opacity:0.176" fill="#7b337d" d="M 412.5,50.5 C 418.633,51.3722 423.8,54.0389 428,58.5C 430.809,68.7049 426.975,74.8716 416.5,77C 411.08,78.0147 406.08,77.1814 401.5,74.5C 404.825,74.8309 408.159,75.1643 411.5,75.5C 414.785,75.5526 417.785,74.8859 420.5,73.5C 423.428,72.4086 425.594,70.4086 427,67.5C 428.109,62.9951 426.942,59.3285 423.5,56.5C 419.889,54.1982 416.222,52.1982 412.5,50.5 Z"/></g>
<g><path style="opacity:0.016" fill="#7b337d" d="M 452.5,59.5 C 455.589,65.7114 460.589,68.2114 467.5,67C 469.56,65.3035 471.893,64.1369 474.5,63.5C 476.417,63.7538 477.751,64.7538 478.5,66.5C 478.167,66.5 477.833,66.5 477.5,66.5C 476.423,65.9816 475.256,65.6483 474,65.5C 466.923,69.7683 460.09,69.435 453.5,64.5C 453.443,63.391 453.11,62.391 452.5,61.5C 452.5,60.8333 452.5,60.1667 452.5,59.5 Z"/></g>
<g><path style="opacity:0.996" fill="#7b337d" d="M 18.5,57.5 C 19.1667,57.5 19.8333,57.5 20.5,57.5C 24.0398,62.7182 28.7065,66.3848 34.5,68.5C 34.2648,69.0967 33.7648,69.4301 33,69.5C 31,68.8333 29,68.1667 27,67.5C 25.9412,67.6301 25.1079,68.1301 24.5,69C 27.9872,71.912 31.9872,73.412 36.5,73.5C 36.6107,74.1174 36.944,74.6174 37.5,75C 39.8098,75.4966 42.1432,75.6633 44.5,75.5C 40.6888,76.6453 36.6888,76.8119 32.5,76C 30.257,74.8638 27.9237,74.0305 25.5,73.5C 23.5956,73.2624 22.2623,72.2624 21.5,70.5C 19.7484,68.7541 18.4151,66.7541 17.5,64.5C 17.8333,63.8333 18.1667,63.1667 18.5,62.5C 18.5,60.8333 18.5,59.1667 18.5,57.5 Z"/></g>
<g><path style="opacity:0.997" fill="#7b337d" d="M 63.5,63.5 C 60.871,67.9801 57.2044,71.3134 52.5,73.5C 54.6052,69.0229 53.2718,67.1896 48.5,68C 49.7414,69.4865 49.2414,70.3199 47,70.5C 42.995,70.0081 39.1616,69.3414 35.5,68.5C 39.1817,68.6653 42.8484,68.4986 46.5,68C 47.056,67.6174 47.3893,67.1174 47.5,66.5C 47.5,66.1667 47.5,65.8333 47.5,65.5C 48.4916,65.6716 49.1583,65.3382 49.5,64.5C 50.1667,64.5 50.8333,64.5 51.5,64.5C 52.1667,64.5 52.8333,64.5 53.5,64.5C 53.3893,65.1174 53.056,65.6174 52.5,66C 54.4248,67.5948 56.4248,67.7615 58.5,66.5C 59.2162,64.518 60.3829,62.8513 62,61.5C 62.2784,62.4158 62.7784,63.0825 63.5,63.5 Z"/></g>
<g><path style="opacity:0.286" fill="#7b337d" d="M 395.5,64.5 C 395.5,66.5 395.5,68.5 395.5,70.5C 392.833,68.5 392.833,66.5 395.5,64.5 Z"/></g>
<g><path style="opacity:0.997" fill="#7b337d" d="M 395.5,64.5 C 397.527,64.3379 399.527,64.5045 401.5,65C 403.838,67.8307 406.838,68.9974 410.5,68.5C 411.833,68.5 413.167,68.5 414.5,68.5C 409.839,69.0563 405.172,69.8896 400.5,71C 402.507,72.2174 404.674,73.0507 407,73.5C 411.351,73.1335 415.851,73.1335 420.5,73.5C 417.785,74.8859 414.785,75.5526 411.5,75.5C 408.159,75.1643 404.825,74.8309 401.5,74.5C 399.777,72.7819 397.777,71.4486 395.5,70.5C 395.5,68.5 395.5,66.5 395.5,64.5 Z"/></g>
<g><path style="opacity:0.996" fill="#7b337d" d="M 306.5,62.5 C 306.5,63.8333 306.5,65.1667 306.5,66.5C 305.623,69.2577 304.456,71.9244 303,74.5C 300.415,75.8846 298.415,75.2179 297,72.5C 296.007,69.5259 295.174,66.5259 294.5,63.5C 296.925,64.7138 298.425,66.7138 299,69.5C 301.455,68.2574 302.622,66.2574 302.5,63.5C 303.708,62.7659 305.041,62.4326 306.5,62.5 Z"/></g>
<g><path style="opacity:0.996" fill="#7b337d" d="M 34.5,68.5 C 34.8333,68.5 35.1667,68.5 35.5,68.5C 39.1616,69.3414 42.995,70.0081 47,70.5C 49.2414,70.3199 49.7414,69.4865 48.5,68C 53.2718,67.1896 54.6052,69.0229 52.5,73.5C 52.1667,73.5 51.8333,73.5 51.5,73.5C 47.8384,72.6586 44.005,71.9919 40,71.5C 38.3009,71.3866 37.1342,72.0532 36.5,73.5C 31.9872,73.412 27.9872,71.912 24.5,69C 25.1079,68.1301 25.9412,67.6301 27,67.5C 29,68.1667 31,68.8333 33,69.5C 33.7648,69.4301 34.2648,69.0967 34.5,68.5 Z"/></g>
<g><path style="opacity:0.996" fill="#7b337d" d="M 420.5,73.5 C 415.851,73.1335 411.351,73.1335 407,73.5C 404.674,73.0507 402.507,72.2174 400.5,71C 405.172,69.8896 409.839,69.0563 414.5,68.5C 414.5,67.8333 414.833,67.5 415.5,67.5C 415.842,68.3382 416.508,68.6716 417.5,68.5C 419.827,68.7529 421.827,68.0863 423.5,66.5C 423.833,67 424.167,67.5 424.5,68C 422.294,69.2502 420.961,71.0835 420.5,73.5 Z"/></g>
<g><path style="opacity:0.996" fill="#7b337d" d="M 140.5,60.5 C 140.5,61.8333 140.5,63.1667 140.5,64.5C 142.099,64.7678 143.432,64.4345 144.5,63.5C 145.833,64.1667 146.833,65.1667 147.5,66.5C 147.511,68.0174 148.177,69.1841 149.5,70C 147.934,70.6082 146.6,71.4415 145.5,72.5C 141.783,71.0802 139.45,68.4135 138.5,64.5C 138.989,63.0048 139.655,61.6715 140.5,60.5 Z"/></g>
<g><path style="opacity:0.996" fill="#7b337d" d="M 453.5,64.5 C 460.09,69.435 466.923,69.7683 474,65.5C 475.256,65.6483 476.423,65.9816 477.5,66.5C 478.026,69.8078 476.693,71.9745 473.5,73C 468.318,75.5518 462.985,76.0518 457.5,74.5C 456.833,73.8333 456.167,73.1667 455.5,72.5C 456.675,72.719 457.675,72.3857 458.5,71.5C 457.472,69.6385 455.972,68.3052 454,67.5C 453.517,66.552 453.351,65.552 453.5,64.5 Z"/></g>
<g><path style="opacity:0.996" fill="#7b337d" d="M 147.5,66.5 C 150.889,68.22 154.556,68.8866 158.5,68.5C 157.048,69.3019 155.382,69.8019 153.5,70C 154.167,70.3333 154.833,70.6667 155.5,71C 154.167,71.6667 154.167,72.3333 155.5,73C 156.449,73.6172 157.282,73.4506 158,72.5C 158.995,73.0659 159.828,73.7326 160.5,74.5C 155.987,75.5974 151.321,75.5974 146.5,74.5C 146.167,73.8333 145.833,73.1667 145.5,72.5C 146.6,71.4415 147.934,70.6082 149.5,70C 148.177,69.1841 147.511,68.0174 147.5,66.5 Z"/></g>
<g><path style="opacity:0.992" fill="#7b337d" d="M 237.5,64.5 C 237.833,64.5 238.167,64.5 238.5,64.5C 240.366,67.2701 243.032,68.7701 246.5,69C 248.143,72.1426 247.309,74.3092 244,75.5C 241.901,74.7135 239.734,74.3801 237.5,74.5C 235.091,72.0976 233.091,69.4309 231.5,66.5C 233.394,67.0476 235.06,68.0476 236.5,69.5C 237.452,67.9547 237.785,66.288 237.5,64.5 Z"/></g>
<g><path style="opacity:0.333" fill="#7b337d" d="M 395.5,70.5 C 397.777,71.4486 399.777,72.7819 401.5,74.5C 398.708,74.3775 396.708,73.0442 395.5,70.5 Z"/></g>
<g><path style="opacity:0.894" fill="#7b337d" d="M 444.5,63.5 C 445.167,63.8333 445.833,64.1667 446.5,64.5C 447.117,66.2292 448.117,67.7292 449.5,69C 452.264,69.0058 454.264,70.1725 455.5,72.5C 456.167,73.1667 456.833,73.8333 457.5,74.5C 456.5,74.5 455.5,74.5 454.5,74.5C 449.752,72.087 446.419,68.4204 444.5,63.5 Z"/></g>
<g><path style="opacity:0.996" fill="#7b337d" d="M 96.5,73.5 C 96.5,74.1667 96.1667,74.5 95.5,74.5C 93.901,74.7678 92.5676,74.4345 91.5,73.5C 91.1703,67.1318 91.5037,60.7985 92.5,54.5C 93.9828,52.0542 95.1495,52.3876 96,55.5C 96.4995,61.4908 96.6662,67.4908 96.5,73.5 Z"/></g>
<g><path style="opacity:0.992" fill="#7b337d" d="M 333.5,52.5 C 333.144,57.4838 334.811,58.4838 338.5,55.5C 338.5,56.1667 338.5,56.8333 338.5,57.5C 336.352,62.6086 334.519,67.942 333,73.5C 330.389,76.2434 328.222,75.91 326.5,72.5C 328.205,71.4647 329.872,71.4647 331.5,72.5C 332.401,69.631 333.401,66.7976 334.5,64C 334.456,61.1986 333.456,59.032 331.5,57.5C 331.5,56.5 331.5,55.5 331.5,54.5C 332.167,53.8333 332.833,53.1667 333.5,52.5 Z"/></g>
<g><path style="opacity:1"     fill="#7b337d" d="M 51.5,73.5 C 50.5,73.8333 49.8333,74.5 49.5,75.5C 47.8333,75.5 46.1667,75.5 44.5,75.5C 42.1432,75.6633 39.8098,75.4966 37.5,75C 36.944,74.6174 36.6107,74.1174 36.5,73.5C 37.1342,72.0532 38.3009,71.3866 40,71.5C 44.005,71.9919 47.8384,72.6586 51.5,73.5 Z"/></g>
<g><path style="opacity:0.086" fill="#7b337d" d="M 320.5,53.5 C 323.239,59.6088 325.239,65.9421 326.5,72.5C 328.222,75.91 330.389,76.2434 333,73.5C 334.519,67.942 336.352,62.6086 338.5,57.5C 338.5,59.1667 338.5,60.8333 338.5,62.5C 337.702,67.0611 336.202,71.3945 334,75.5C 328.708,77.8338 325.375,76.1671 324,70.5C 322.355,64.921 321.188,59.2543 320.5,53.5 Z"/></g>
<g><path style="opacity:0.996" fill="#7b337d" d="M 331.5,57.5 C 333.456,59.032 334.456,61.1986 334.5,64C 333.401,66.7976 332.401,69.631 331.5,72.5C 329.872,71.4647 328.205,71.4647 326.5,72.5C 327.452,70.8877 327.786,69.3877 327.5,68C 326.643,67.3109 325.977,66.4776 325.5,65.5C 326.711,64.2798 326.711,63.1131 325.5,62C 326.635,61.2506 327.635,61.4173 328.5,62.5C 327.494,63.3957 327.494,64.0623 328.5,64.5C 329.7,63.4688 331.034,62.6355 332.5,62C 331.748,61.3292 331.414,60.4959 331.5,59.5C 331.5,58.8333 331.5,58.1667 331.5,57.5 Z"/></g>
<g><path style="opacity:0.125" fill="#7b337d" d="M 292.5,60.5 C 293.167,61.1667 293.833,61.8333 294.5,62.5C 294.5,62.8333 294.5,63.1667 294.5,63.5C 295.174,66.5259 296.007,69.5259 297,72.5C 298.415,75.2179 300.415,75.8846 303,74.5C 304.456,71.9244 305.623,69.2577 306.5,66.5C 307.167,66.1667 307.833,65.8333 308.5,65.5C 308.075,69.2061 306.741,72.5395 304.5,75.5C 302.232,76.5443 299.899,76.711 297.5,76C 295.141,71.0676 293.475,65.9009 292.5,60.5 Z"/></g>
<g><path style="opacity:0.063" fill="#7b337d" d="M 175.5,59.5 C 175.5,60.8333 175.5,62.1667 175.5,63.5C 171.926,72.3841 165.259,77.0507 155.5,77.5C 152.074,77.4692 149.074,76.4692 146.5,74.5C 151.321,75.5974 155.987,75.5974 160.5,74.5C 166.089,73.0433 170.089,69.71 172.5,64.5C 173.935,63.0867 174.935,61.42 175.5,59.5 Z"/></g>
<g><path style="opacity:0.108" fill="#7b337d" d="M 238.5,64.5 C 239.167,64.5 239.833,64.5 240.5,64.5C 242.763,66.3826 245.43,67.7159 248.5,68.5C 251.283,71.342 250.95,73.842 247.5,76C 243.852,76.8371 240.519,76.3371 237.5,74.5C 239.734,74.3801 241.901,74.7135 244,75.5C 247.309,74.3092 248.143,72.1426 246.5,69C 243.032,68.7701 240.366,67.2701 238.5,64.5 Z"/></g>
<g><path style="opacity:0.22"  fill="#7b337d" d="M 477.5,66.5 C 477.833,66.5 478.167,66.5 478.5,66.5C 479.489,70.4502 477.822,73.2835 473.5,75C 466.945,78.456 460.612,78.2893 454.5,74.5C 455.5,74.5 456.5,74.5 457.5,74.5C 462.985,76.0518 468.318,75.5518 473.5,73C 476.693,71.9745 478.026,69.8078 477.5,66.5 Z"/></g>
<g><path style="opacity:0.298" fill="#7b337d" d="M 25.5,73.5 C 27.9237,74.0305 30.257,74.8638 32.5,76C 36.6888,76.8119 40.6888,76.6453 44.5,75.5C 46.1667,75.5 47.8333,75.5 49.5,75.5C 51.1172,74.962 52.7839,74.6287 54.5,74.5C 47.3245,78.6188 39.6578,79.4521 31.5,77C 28.9746,76.5762 26.9746,75.4095 25.5,73.5 Z"/></g>
<g><path style="opacity:0.178" fill="#7b337d" d="M 308.5,108.5 C 308.5,108.833 308.5,109.167 308.5,109.5C 307.878,110.627 307.045,111.627 306,112.5C 305.821,109.447 305.321,106.447 304.5,103.5C 303.167,109.167 303.167,114.833 304.5,120.5C 305.308,118.577 305.808,116.577 306,114.5C 307.554,112.073 308.721,112.073 309.5,114.5C 307.836,115.949 307.002,117.949 307,120.5C 305.644,121.38 304.144,121.714 302.5,121.5C 302.807,115.907 302.473,110.407 301.5,105C 302.45,102.09 304.45,100.923 307.5,101.5C 307.198,104.059 307.532,106.393 308.5,108.5 Z"/></g>
<g><path style="opacity:0.149" fill="#7b337d" d="M 383.5,108.5 C 382.878,109.627 382.045,110.627 381,111.5C 381.053,108.325 380.22,105.658 378.5,103.5C 378.167,103.5 377.833,103.5 377.5,103.5C 378.002,101.915 379.002,101.415 380.5,102C 381.926,104.045 382.926,106.212 383.5,108.5 Z"/></g>
<g><path style="opacity:0.086" fill="#7b337d" d="M 217.5,106.5 C 220.113,105.905 220.113,105.071 217.5,104C 214.779,103.398 212.113,103.565 209.5,104.5C 209.611,103.883 209.944,103.383 210.5,103C 214.244,102.071 217.744,102.571 221,104.5C 221.483,105.448 221.649,106.448 221.5,107.5C 219.901,107.768 218.568,107.434 217.5,106.5 Z"/></g>
<g><path style="opacity:0.09"  fill="#7b337d" d="M 85.5,103.5 C 84.8333,104.167 84.1667,104.833 83.5,105.5C 80.3157,103.586 76.649,102.92 72.5,103.5C 72.5,109.167 72.5,114.833 72.5,120.5C 71.3475,114.681 71.1808,108.681 72,102.5C 76.5222,102.888 81.0222,102.221 85.5,100.5C 85.5,101.5 85.5,102.5 85.5,103.5 Z"/></g>
<g><path style="opacity:0.31"  fill="#7b337d" d="M 96.5,103.5 C 95.6827,105.831 95.0161,108.331 94.5,111C 96.2161,114.315 95.5495,116.815 92.5,118.5C 93.9783,115.712 93.8116,113.046 92,110.5C 89.3178,112.724 88.8178,115.39 90.5,118.5C 86.361,116.744 85.6943,114.078 88.5,110.5C 90.1151,109.846 91.7818,109.346 93.5,109C 91.5273,108.505 89.5273,108.338 87.5,108.5C 87.5,108.167 87.5,107.833 87.5,107.5C 88.5,107.5 89.5,107.5 90.5,107.5C 90.5,106.5 90.5,105.5 90.5,104.5C 91.4584,104.953 92.2917,105.619 93,106.5C 93.4643,105.906 93.631,105.239 93.5,104.5C 94.1515,103.909 94.8182,103.243 95.5,102.5C 96.1067,102.624 96.44,102.957 96.5,103.5 Z M 92.5,118.5 C 91.8333,118.5 91.1667,118.5 90.5,118.5C 88.8178,115.39 89.3178,112.724 92,110.5C 93.8116,113.046 93.9783,115.712 92.5,118.5 Z"/></g>
<g><path style="opacity:0.141" fill="#7b337d" d="M 342.5,102.5 C 341.167,105.155 339.834,107.822 338.5,110.5C 338.323,108.632 338.323,106.799 338.5,105C 339.356,103.405 340.689,102.572 342.5,102.5 Z"/></g>
<g><path style="opacity:0.016" fill="#7b337d" d="M 217.5,106.5 C 216.022,106.238 214.689,106.571 213.5,107.5C 214.549,109.216 215.882,110.549 217.5,111.5C 213.194,111.697 211.194,109.697 211.5,105.5C 213.735,105.205 215.735,105.539 217.5,106.5 Z"/></g>
<g><path style="opacity:0.184" fill="#7b337d" d="M 279.5,107.5 C 278.25,107.423 277.417,106.756 277,105.5C 276.722,106.416 276.222,107.082 275.5,107.5C 275.5,106.833 275.167,106.5 274.5,106.5C 276.969,102.432 278.635,102.765 279.5,107.5 Z"/></g>
<g><path style="opacity:0.188" fill="#7b337d" d="M 329.5,118.5 C 328.833,118.5 328.167,118.5 327.5,118.5C 326.989,114.97 327.656,111.804 329.5,109C 328.23,108.1 327.23,106.934 326.5,105.5C 325.818,106.243 325.151,106.909 324.5,107.5C 324.443,106.391 324.11,105.391 323.5,104.5C 327.068,102.688 329.568,103.688 331,107.5C 329.915,110.936 329.415,114.602 329.5,118.5 Z"/></g>
<g><path style="opacity:0.237" fill="#7b337d" d="M 148.5,104.5 C 149.5,104.5 150.5,104.5 151.5,104.5C 151.5,105.833 151.5,107.167 151.5,108.5C 150.833,108.5 150.167,108.5 149.5,108.5C 148.549,109.919 148.216,111.585 148.5,113.5C 147.732,112.737 147.232,111.737 147,110.5C 146.626,111.416 146.126,112.25 145.5,113C 146.406,114.699 146.739,116.533 146.5,118.5C 145.833,118.5 145.167,118.5 144.5,118.5C 143.523,115.713 143.19,112.713 143.5,109.5C 144.552,109.649 145.552,109.483 146.5,109C 144.667,108.5 143.5,107.333 143,105.5C 142.583,106.756 141.75,107.423 140.5,107.5C 140.176,104.32 141.51,103.153 144.5,104C 145.618,105.074 146.618,106.24 147.5,107.5C 147.593,106.528 147.926,105.528 148.5,104.5 Z"/></g>
<g><path style="opacity:0.616" fill="#7b337d" d="M 217.5,106.5 C 215.735,105.539 213.735,105.205 211.5,105.5C 211.194,109.697 213.194,111.697 217.5,111.5C 217.833,111.5 218.167,111.5 218.5,111.5C 220.879,118.793 218.212,121.793 210.5,120.5C 209.438,119.425 209.438,118.425 210.5,117.5C 211.417,118.127 212.417,118.461 213.5,118.5C 215.346,118.778 216.68,118.111 217.5,116.5C 214.912,114.842 212.245,113.175 209.5,111.5C 208.203,109.027 208.203,106.693 209.5,104.5C 212.113,103.565 214.779,103.398 217.5,104C 220.113,105.071 220.113,105.905 217.5,106.5 Z"/></g>
<g><path style="opacity:0.118" fill="#7b337d" d="M 323.5,104.5 C 324.11,105.391 324.443,106.391 324.5,107.5C 324.167,107.5 323.833,107.5 323.5,107.5C 321.699,104.201 319.699,103.868 317.5,106.5C 315.521,107.812 313.855,109.479 312.5,111.5C 314.552,113.878 316.552,116.211 318.5,118.5C 318.328,119.492 318.662,120.158 319.5,120.5C 321.402,117.663 322.069,114.329 321.5,110.5C 322.167,110.833 322.833,111.167 323.5,111.5C 323.665,114.518 323.498,117.518 323,120.5C 319.914,122.619 317.081,122.619 314.5,120.5C 315.376,120.631 316.043,120.298 316.5,119.5C 314.68,116.517 312.68,113.684 310.5,111C 311.776,108.719 313.443,106.719 315.5,105C 314.833,104.333 314.167,104.333 313.5,105C 311.963,106.707 310.296,108.207 308.5,109.5C 308.5,109.167 308.5,108.833 308.5,108.5C 312.341,103.461 317.341,102.128 323.5,104.5 Z"/></g>
<g><path style="opacity:0.831" fill="#7b337d" d="M 378.5,103.5 C 380.22,105.658 381.053,108.325 381,111.5C 382.045,110.627 382.878,109.627 383.5,108.5C 386.056,107.457 388.223,105.79 390,103.5C 389.107,106.436 387.274,108.936 384.5,111C 386.62,113.409 388.62,115.909 390.5,118.5C 390.043,119.298 389.376,119.631 388.5,119.5C 386.457,118.421 385.124,116.754 384.5,114.5C 384.631,113.624 384.298,112.957 383.5,112.5C 382.261,112.942 381.261,113.609 380.5,114.5C 379.698,115.952 379.198,117.618 379,119.5C 378.501,114.177 378.334,108.844 378.5,103.5 Z"/></g>
<g><path style="opacity:0.875" fill="#7b337d" d="M 83.5,105.5 C 80.5,105.5 77.5,105.5 74.5,105.5C 74.5,107.167 74.5,108.833 74.5,110.5C 83.8333,111.167 83.8333,111.833 74.5,112.5C 74.5,114.5 74.5,116.5 74.5,118.5C 75.8333,118.5 77.1667,118.5 78.5,118.5C 80.36,117.929 82.0267,117.929 83.5,118.5C 80.3157,120.414 76.649,121.08 72.5,120.5C 72.5,114.833 72.5,109.167 72.5,103.5C 76.649,102.92 80.3157,103.586 83.5,105.5 Z"/></g>
<g><path style="opacity:0.165" fill="#7b337d" d="M 114.5,109.5 C 114.5,109.833 114.5,110.167 114.5,110.5C 113.286,113.129 113.286,115.796 114.5,118.5C 113.883,118.389 113.383,118.056 113,117.5C 112.535,118.931 111.701,120.097 110.5,121C 107.633,121.801 104.966,121.634 102.5,120.5C 104.92,120.708 107.253,120.374 109.5,119.5C 110.659,115.878 110.825,112.211 110,108.5C 109.667,111.167 109.333,113.833 109,116.5C 108.617,117.056 108.117,117.389 107.5,117.5C 107.18,114.102 107.513,110.768 108.5,107.5C 111.277,105.981 113.277,106.648 114.5,109.5 Z"/></g>
<g><path style="opacity:0.184" fill="#7b337d" d="M 135.5,107.5 C 136.492,107.328 137.158,107.662 137.5,108.5C 134.697,108.592 131.697,108.758 128.5,109C 126.16,112.231 125.827,115.731 127.5,119.5C 126.05,118.342 125.05,118.842 124.5,121C 121.5,121.667 118.5,121.667 115.5,121C 114.748,120.329 114.414,119.496 114.5,118.5C 117.785,120.775 121.118,120.942 124.5,119C 123.906,118.536 123.239,118.369 122.5,118.5C 124.727,116.771 125.727,114.438 125.5,111.5C 117.62,109.041 115.62,111.374 119.5,118.5C 115.854,117.538 114.687,115.205 116,111.5C 118.166,109.879 120.666,109.045 123.5,109C 120.177,108.068 117.177,108.568 114.5,110.5C 114.5,110.167 114.5,109.833 114.5,109.5C 115.622,108.053 117.122,107.053 119,106.5C 121.629,106.928 123.962,107.928 126,109.5C 128.826,107.66 131.993,106.994 135.5,107.5 Z M 122.5,118.5 C 121.5,118.5 120.5,118.5 119.5,118.5C 115.62,111.374 117.62,109.041 125.5,111.5C 125.727,114.438 124.727,116.771 122.5,118.5 Z"/></g>
<g><path style="opacity:0.886" fill="#7b337d" d="M 279.5,107.5 C 279.833,107.5 280.167,107.5 280.5,107.5C 280.179,109.048 279.179,109.715 277.5,109.5C 277.044,113.111 277.711,116.444 279.5,119.5C 278.726,120.711 277.893,120.711 277,119.5C 276.502,116.183 276.335,112.85 276.5,109.5C 275.325,109.719 274.325,109.386 273.5,108.5C 273.624,107.893 273.957,107.56 274.5,107.5C 274.833,107.5 275.167,107.5 275.5,107.5C 276.222,107.082 276.722,106.416 277,105.5C 277.417,106.756 278.25,107.423 279.5,107.5 Z"/></g>
<g><path style="opacity:0.2"   fill="#7b337d" d="M 363.5,121.5 C 364.26,117.919 364.76,114.252 365,110.5C 366.067,109.809 367.234,109.309 368.5,109C 366.479,108.86 364.645,108.693 363,108.5C 362.283,109.044 361.783,109.711 361.5,110.5C 361.167,110.5 360.833,110.5 360.5,110.5C 360.414,109.504 360.748,108.671 361.5,108C 363.698,107.627 365.865,107.127 368,106.5C 372.611,108.979 372.111,110.313 366.5,110.5C 366.389,114.642 365.389,118.308 363.5,121.5 Z"/></g>
<g><path style="opacity:0.643" fill="#7b337d" d="M 410.5,119.5 C 408.824,118.817 408.157,117.483 408.5,115.5C 408.833,111.167 406.833,109.167 402.5,109.5C 401.662,109.158 401.328,108.492 401.5,107.5C 403.167,107.5 404.833,107.5 406.5,107.5C 406.56,108.043 406.893,108.376 407.5,108.5C 408.167,106.5 408.833,104.5 409.5,102.5C 410.495,108.128 410.829,113.794 410.5,119.5 Z"/></g>
<g><path style="opacity:0.259" fill="#7b337d" d="M 100.5,108.5 C 100.842,107.662 101.508,107.328 102.5,107.5C 103.117,107.611 103.617,107.944 104,108.5C 104.05,112.157 104.883,115.49 106.5,118.5C 105.178,118.67 104.011,118.337 103,117.5C 103.07,114.008 102.237,111.008 100.5,108.5 Z"/></g>
<g><path style="opacity:0.8"   fill="#7b337d" d="M 144.5,118.5 C 145.679,120.507 145.179,120.84 143,119.5C 142.857,115.279 142.023,111.279 140.5,107.5C 141.75,107.423 142.583,106.756 143,105.5C 143.5,107.333 144.667,108.5 146.5,109C 145.552,109.483 144.552,109.649 143.5,109.5C 143.19,112.713 143.523,115.713 144.5,118.5 Z"/></g>
<g><path style="opacity:0.392" fill="#7b337d" d="M 248.5,107.5 C 250.735,107.205 252.735,107.539 254.5,108.5C 254.92,110.094 255.586,111.594 256.5,113C 256.164,114.03 255.497,114.53 254.5,114.5C 252.5,114.5 250.5,114.5 248.5,114.5C 247.5,114.5 246.5,114.5 245.5,114.5C 245.343,113.127 245.51,111.793 246,110.5C 246.417,111.756 247.25,112.423 248.5,112.5C 249.978,112.762 251.311,112.429 252.5,111.5C 252.376,110.893 252.043,110.56 251.5,110.5C 250.391,109.71 249.058,109.21 247.5,109C 248.056,108.617 248.389,108.117 248.5,107.5 Z M 251.5,110.5 C 252.043,110.56 252.376,110.893 252.5,111.5C 251.311,112.429 249.978,112.762 248.5,112.5C 248.973,111.094 249.973,110.427 251.5,110.5 Z"/></g>
<g><path style="opacity:0.686" fill="#7b337d" d="M 419.5,110.5 C 418.432,109.566 417.099,109.232 415.5,109.5C 415.281,110.675 415.614,111.675 416.5,112.5C 418.413,113.373 420.247,114.373 422,115.5C 422.384,117.197 422.218,118.863 421.5,120.5C 420.551,121.152 419.385,121.486 418,121.5C 415.992,121.693 414.492,121.026 413.5,119.5C 413.369,118.761 413.536,118.094 414,117.5C 414.671,118.252 415.504,118.586 416.5,118.5C 420.171,117.395 419.838,116.395 415.5,115.5C 414.833,114.833 414.167,114.167 413.5,113.5C 413.5,111.833 413.5,110.167 413.5,108.5C 416.304,107.362 419.304,107.195 422.5,108C 423.337,109.011 423.67,110.178 423.5,111.5C 421.901,111.768 420.568,111.434 419.5,110.5 Z"/></g>
<g><path style="opacity:0.165" fill="#7b337d" d="M 102.5,107.5 C 101.508,107.328 100.842,107.662 100.5,108.5C 100.5,111.5 100.5,114.5 100.5,117.5C 99.8571,119.076 98.8571,120.41 97.5,121.5C 97.8229,115.31 97.4896,109.31 96.5,103.5C 96.44,102.957 96.1067,102.624 95.5,102.5C 94.8182,103.243 94.1515,103.909 93.5,104.5C 93.8541,102.459 93.8541,100.626 93.5,99C 95.5185,99.1525 97.5185,99.6525 99.5,100.5C 99.5,102.5 99.5,104.5 99.5,106.5C 100.791,106.263 101.791,106.596 102.5,107.5 Z"/></g>
<g><path style="opacity:0.561" fill="#7b337d" d="M 327.5,118.5 C 328.679,120.507 328.179,120.84 326,119.5C 325.857,115.279 325.023,111.279 323.5,107.5C 323.833,107.5 324.167,107.5 324.5,107.5C 325.151,106.909 325.818,106.243 326.5,105.5C 327.23,106.934 328.23,108.1 329.5,109C 327.656,111.804 326.989,114.97 327.5,118.5 Z"/></g>
<g><path style="opacity:0.494" fill="#7b337d" d="M 355.5,107.5 C 359.296,110.406 360.129,114.073 358,118.5C 355.113,120.839 351.946,121.172 348.5,119.5C 347.242,115.8 347.242,112.134 348.5,108.5C 350.717,107.631 353.05,107.298 355.5,107.5 Z M 352.5,110.5 C 354.844,110.506 356.178,111.673 356.5,114C 356.478,116.183 355.478,117.683 353.5,118.5C 352.524,117.185 351.524,115.852 350.5,114.5C 351.18,113.14 351.847,111.807 352.5,110.5 Z"/></g>
<g><path style="opacity:0.337" fill="#7b337d" d="M 269.5,108.5 C 270.833,112.5 272.167,116.5 273.5,120.5C 272.432,121.434 271.099,121.768 269.5,121.5C 269.5,118.167 269.5,114.833 269.5,111.5C 269.5,110.5 269.5,109.5 269.5,108.5 Z"/></g>
<g><path style="opacity:0.733" fill="#7b337d" d="M 308.5,109.5 C 310.296,108.207 311.963,106.707 313.5,105C 314.167,104.333 314.833,104.333 315.5,105C 313.443,106.719 311.776,108.719 310.5,111C 312.68,113.684 314.68,116.517 316.5,119.5C 316.043,120.298 315.376,120.631 314.5,120.5C 312.367,118.909 310.701,116.909 309.5,114.5C 308.721,112.073 307.554,112.073 306,114.5C 305.808,116.577 305.308,118.577 304.5,120.5C 303.167,114.833 303.167,109.167 304.5,103.5C 305.321,106.447 305.821,109.447 306,112.5C 307.045,111.627 307.878,110.627 308.5,109.5 Z"/></g>
<g><path style="opacity:0.059" fill="#7b337d" d="M 323.5,107.5 C 325.023,111.279 325.857,115.279 326,119.5C 328.179,120.84 328.679,120.507 327.5,118.5C 328.167,118.5 328.833,118.5 329.5,118.5C 330.404,119.209 330.737,120.209 330.5,121.5C 328.533,121.739 326.699,121.406 325,120.5C 324.875,116.72 324.375,113.72 323.5,111.5C 322.833,111.167 322.167,110.833 321.5,110.5C 321.719,109.325 321.386,108.325 320.5,107.5C 319.508,111.783 319.174,116.116 319.5,120.5C 318.662,120.158 318.328,119.492 318.5,118.5C 318.817,114.298 318.483,110.298 317.5,106.5C 319.699,103.868 321.699,104.201 323.5,107.5 Z"/></g>
<g><path style="opacity:0.466" fill="#7b337d" d="M 342.5,102.5 C 343.5,102.5 344.5,102.5 345.5,102.5C 345.179,104.048 344.179,104.715 342.5,104.5C 342.227,106.451 342.893,107.951 344.5,109C 343.552,109.483 342.552,109.649 341.5,109.5C 341.665,112.85 341.498,116.183 341,119.5C 340.819,116.305 340.319,113.305 339.5,110.5C 339.167,110.5 338.833,110.5 338.5,110.5C 339.834,107.822 341.167,105.155 342.5,102.5 Z"/></g>
<g><path style="opacity:0.786" fill="#7b337d" d="M 345.5,102.5 C 346.376,102.369 347.043,102.702 347.5,103.5C 343.308,105.989 343.641,107.655 348.5,108.5C 347.242,112.134 347.242,115.8 348.5,119.5C 347.25,119.423 346.417,118.756 346,117.5C 345.289,115.101 345.456,112.768 346.5,110.5C 346.03,109.537 345.363,109.537 344.5,110.5C 343.167,113.833 341.833,117.167 340.5,120.5C 339.521,117.375 339.187,114.042 339.5,110.5C 340.319,113.305 340.819,116.305 341,119.5C 341.498,116.183 341.665,112.85 341.5,109.5C 342.552,109.649 343.552,109.483 344.5,109C 342.893,107.951 342.227,106.451 342.5,104.5C 344.179,104.715 345.179,104.048 345.5,102.5 Z"/></g>
<g><path style="opacity:0.027" fill="#7b337d" d="M 413.5,108.5 C 413.5,110.167 413.5,111.833 413.5,113.5C 412.957,113.56 412.624,113.893 412.5,114.5C 413.325,115.386 414.325,115.719 415.5,115.5C 416.11,116.391 416.443,117.391 416.5,118.5C 415.504,118.586 414.671,118.252 414,117.5C 413.536,118.094 413.369,118.761 413.5,119.5C 411.616,120.675 409.449,121.342 407,121.5C 404.967,121.494 403.134,121.161 401.5,120.5C 404.713,120.81 407.713,120.477 410.5,119.5C 410.829,113.794 410.495,108.128 409.5,102.5C 408.833,104.5 408.167,106.5 407.5,108.5C 406.893,108.376 406.56,108.043 406.5,107.5C 406.671,106.121 406.838,104.454 407,102.5C 408.143,99.0847 409.81,98.7514 412,101.5C 412.186,104.036 412.686,106.369 413.5,108.5 Z"/></g>
<g><path style="opacity:0.353" fill="#7b337d" d="M 194.5,121.5 C 194.5,116.833 194.5,112.167 194.5,107.5C 195.306,106.003 195.972,104.336 196.5,102.5C 197.723,101.386 199.056,101.219 200.5,102C 201.642,108.084 201.809,114.251 201,120.5C 198.738,121.169 196.571,121.502 194.5,121.5 Z"/></g>
<g><path style="opacity:0.086" fill="#7b337d" d="M 268.5,103.5 C 266.82,105.726 267.153,107.393 269.5,108.5C 269.5,109.5 269.5,110.5 269.5,111.5C 268.681,114.305 268.181,117.305 268,120.5C 266.644,121.38 265.144,121.714 263.5,121.5C 263.866,116.073 263.533,112.073 262.5,109.5C 261.244,107.274 261.244,104.941 262.5,102.5C 264.901,100.938 266.901,101.271 268.5,103.5 Z"/></g>
<g><path style="opacity:0.199" fill="#7b337d" d="M 399.5,109.5 C 398.167,112.5 398.167,115.5 399.5,118.5C 398.728,119.694 397.728,120.694 396.5,121.5C 396.379,115.985 396.379,110.652 396.5,105.5C 394.948,104.202 393.948,104.535 393.5,106.5C 392.833,106.5 392.167,106.5 391.5,106.5C 391.557,105.391 391.89,104.391 392.5,103.5C 393.158,102.602 393.824,101.602 394.5,100.5C 395.48,101.981 396.647,103.315 398,104.5C 398.492,105.549 398.326,106.549 397.5,107.5C 397.855,108.522 398.522,109.189 399.5,109.5 Z"/></g>
<g><path style="opacity:0.094" fill="#7b337d" d="M 419.5,110.5 C 418.761,110.369 418.094,110.536 417.5,111C 419.249,112.292 421.082,113.458 423,114.5C 423.167,115.5 423.333,116.5 423.5,117.5C 423.36,119.03 422.693,120.03 421.5,120.5C 422.218,118.863 422.384,117.197 422,115.5C 420.247,114.373 418.413,113.373 416.5,112.5C 415.614,111.675 415.281,110.675 415.5,109.5C 417.099,109.232 418.432,109.566 419.5,110.5 Z"/></g>
<g><path style="opacity:0.016" fill="#7b337d" d="M 85.5,103.5 C 85.4701,104.497 85.9701,105.164 87,105.5C 88.1385,105.011 89.3052,104.678 90.5,104.5C 90.5,105.5 90.5,106.5 90.5,107.5C 89.5,107.5 88.5,107.5 87.5,107.5C 87.5,107.833 87.5,108.167 87.5,108.5C 85.3104,111.979 84.977,115.645 86.5,119.5C 85.8333,119.167 85.1667,118.833 84.5,118.5C 84.5086,116.692 84.0086,115.025 83,113.5C 80.9592,114.423 78.7925,114.756 76.5,114.5C 76.5271,116.199 77.1938,117.533 78.5,118.5C 77.1667,118.5 75.8333,118.5 74.5,118.5C 74.5,116.5 74.5,114.5 74.5,112.5C 83.8333,111.833 83.8333,111.167 74.5,110.5C 74.5,108.833 74.5,107.167 74.5,105.5C 77.5,105.5 80.5,105.5 83.5,105.5C 84.1667,104.833 84.8333,104.167 85.5,103.5 Z M 87.5,107.5 C 86.2058,108.29 85.0391,109.29 84,110.5C 81.3892,109.929 78.8892,109.096 76.5,108C 78.2875,106.912 80.2875,106.412 82.5,106.5C 84.3693,106.507 86.036,106.84 87.5,107.5 Z M 84.5,118.5 C 84.1667,118.5 83.8333,118.5 83.5,118.5C 82.0267,117.929 80.36,117.929 78.5,118.5C 77.1938,117.533 76.5271,116.199 76.5,114.5C 78.7925,114.756 80.9592,114.423 83,113.5C 84.0086,115.025 84.5086,116.692 84.5,118.5 Z"/></g>
<g><path style="opacity:0.29"  fill="#7b337d" d="M 148.5,104.5 C 149.601,103.402 150.934,103.235 152.5,104C 153.212,105.425 153.379,106.925 153,108.5C 153.77,109.598 154.603,109.598 155.5,108.5C 154.621,110.228 153.954,112.061 153.5,114C 154.259,116.265 155.259,118.432 156.5,120.5C 155.25,120.423 154.417,119.756 154,118.5C 153.623,119.942 152.79,120.942 151.5,121.5C 151.5,120.833 151.5,120.167 151.5,119.5C 151.5,115.833 151.5,112.167 151.5,108.5C 151.5,107.167 151.5,105.833 151.5,104.5C 150.5,104.5 149.5,104.5 148.5,104.5 Z"/></g>
<g><path style="opacity:0.697" fill="#7b337d" d="M 190.5,107.5 C 191.833,107.5 193.167,107.5 194.5,107.5C 194.5,112.167 194.5,116.833 194.5,121.5C 190.958,121.813 187.625,121.479 184.5,120.5C 187.482,120.173 190.315,120.173 193,120.5C 193.667,116.5 193.667,112.5 193,108.5C 191.841,109.566 191.008,109.233 190.5,107.5 Z"/></g>
<g><path style="opacity:0.854" fill="#7b337d" d="M 264.5,102.5 C 265.816,105.087 266.483,108.087 266.5,111.5C 266.167,114.5 265.833,117.5 265.5,120.5C 264.504,114.537 264.171,108.537 264.5,102.5 Z"/></g>
<g><path style="opacity:0.557" fill="#7b337d" d="M 289.5,107.5 C 292.48,108.829 293.813,111.163 293.5,114.5C 290.5,114.5 287.5,114.5 284.5,114.5C 284.088,116.973 285.088,118.306 287.5,118.5C 288.959,118.567 290.292,118.234 291.5,117.5C 292.376,117.369 293.043,117.702 293.5,118.5C 292.148,119.896 290.481,120.563 288.5,120.5C 286.307,120.281 284.307,119.615 282.5,118.5C 281.244,116.059 281.244,113.726 282.5,111.5C 283.338,111.158 283.672,110.492 283.5,109.5C 284.99,107.72 286.99,107.054 289.5,107.5 Z M 289.5,110.5 C 289.167,111.167 288.833,111.833 288.5,112.5C 287.243,111.377 287.576,110.711 289.5,110.5 Z"/></g>
<g><path style="opacity:0.005" fill="#7b337d" d="M 289.5,110.5 C 290.376,110.369 291.043,110.702 291.5,111.5C 290.675,112.386 289.675,112.719 288.5,112.5C 288.833,111.833 289.167,111.167 289.5,110.5 Z"/></g>
<g><path style="opacity:0.753" fill="#7b337d" d="M 321.5,110.5 C 322.069,114.329 321.402,117.663 319.5,120.5C 319.174,116.116 319.508,111.783 320.5,107.5C 321.386,108.325 321.719,109.325 321.5,110.5 Z"/></g>
<g><path style="opacity:0.09"  fill="#7b337d" d="M 352.5,110.5 C 351.847,111.807 351.18,113.14 350.5,114.5C 351.524,115.852 352.524,117.185 353.5,118.5C 348.818,118.125 347.484,115.792 349.5,111.5C 350.325,110.614 351.325,110.281 352.5,110.5 Z"/></g>
<g><path style="opacity:0.318" fill="#7b337d" d="M 402.5,109.5 C 406.833,109.167 408.833,111.167 408.5,115.5C 408.167,115.5 407.833,115.5 407.5,115.5C 407.636,112.476 406.302,110.976 403.5,111C 402.083,113.743 402.416,116.243 404.5,118.5C 400.857,117.618 399.69,115.284 401,111.5C 401.717,110.956 402.217,110.289 402.5,109.5 Z"/></g>
<g><path style="opacity:0.569" fill="#7b337d" d="M 137.5,108.5 C 137.666,112.514 137.499,116.514 137,120.5C 136.5,119.5 136,118.5 135.5,117.5C 137.136,114.362 136.47,112.029 133.5,110.5C 128.655,109.183 126.822,111.183 128,116.5C 128.816,117.823 129.983,118.489 131.5,118.5C 132.167,118.5 132.833,118.5 133.5,118.5C 133.38,119.586 132.713,120.253 131.5,120.5C 130.151,120.154 128.817,119.821 127.5,119.5C 125.827,115.731 126.16,112.231 128.5,109C 131.697,108.758 134.697,108.592 137.5,108.5 Z M 133.5,110.5 C 134.833,113.167 134.833,115.833 133.5,118.5C 132.833,118.5 132.167,118.5 131.5,118.5C 128.34,114.754 129.006,112.087 133.5,110.5 Z"/></g>
<g><path style="opacity:0.502" fill="#7b337d" d="M 133.5,110.5 C 129.006,112.087 128.34,114.754 131.5,118.5C 129.983,118.489 128.816,117.823 128,116.5C 126.822,111.183 128.655,109.183 133.5,110.5 Z"/></g>
<g><path style="opacity:0.637" fill="#7b337d" d="M 149.5,108.5 C 150.167,108.5 150.833,108.5 151.5,108.5C 151.5,112.167 151.5,115.833 151.5,119.5C 150.883,119.611 150.383,119.944 150,120.5C 149.501,116.514 149.334,112.514 149.5,108.5 Z"/></g>
<g><path style="opacity:0.62"  fill="#7b337d" d="M 254.5,108.5 C 256.03,109.211 257.363,110.211 258.5,111.5C 258.249,114.29 258.249,117.29 258.5,120.5C 257.883,120.389 257.383,120.056 257,119.5C 255.89,121.037 254.39,121.703 252.5,121.5C 253.172,120.733 254.005,120.066 255,119.5C 255.692,118.563 255.525,117.897 254.5,117.5C 254.5,116.5 254.5,115.5 254.5,114.5C 255.497,114.53 256.164,114.03 256.5,113C 255.586,111.594 254.92,110.094 254.5,108.5 Z"/></g>
<g><path style="opacity:0.345" fill="#7b337d" d="M 355.5,107.5 C 357.959,107.31 359.626,108.31 360.5,110.5C 360.5,111.167 360.833,111.5 361.5,111.5C 361.031,114.339 361.031,117.005 361.5,119.5C 360.05,118.342 359.05,118.842 358.5,121C 355.5,121.667 352.5,121.667 349.5,121C 348.944,120.617 348.611,120.117 348.5,119.5C 351.946,121.172 355.113,120.839 358,118.5C 360.129,114.073 359.296,110.406 355.5,107.5 Z"/></g>
<g><path style="opacity:0.137" fill="#7b337d" d="M 377.5,103.5 C 377.833,103.5 378.167,103.5 378.5,103.5C 378.334,108.844 378.501,114.177 379,119.5C 379.198,117.618 379.698,115.952 380.5,114.5C 380.5,116.5 380.5,118.5 380.5,120.5C 379.5,120.5 378.5,120.5 377.5,120.5C 377.5,114.833 377.5,109.167 377.5,103.5 Z"/></g>
<g><path style="opacity:0.114" fill="#7b337d" d="M 392.5,103.5 C 391.89,104.391 391.557,105.391 391.5,106.5C 390.351,108.149 389.018,109.649 387.5,111C 389.016,113.341 390.683,115.508 392.5,117.5C 392.5,117.833 392.5,118.167 392.5,118.5C 393.167,119.5 393.833,120.5 394.5,121.5C 391.918,121.975 389.918,121.308 388.5,119.5C 389.376,119.631 390.043,119.298 390.5,118.5C 388.62,115.909 386.62,113.409 384.5,111C 387.274,108.936 389.107,106.436 390,103.5C 388.223,105.79 386.056,107.457 383.5,108.5C 386.442,106.221 388.109,103.221 388.5,99.5C 389.5,99.5 390.5,99.5 391.5,99.5C 391.433,100.959 391.766,102.292 392.5,103.5 Z"/></g>
<g><path style="opacity:0.165" fill="#7b337d" d="M 396.5,121.5 C 395.833,121.5 395.167,121.5 394.5,121.5C 393.833,120.5 393.167,119.5 392.5,118.5C 393.833,118.167 393.833,117.833 392.5,117.5C 392.7,113.825 393.033,110.159 393.5,106.5C 393.948,104.535 394.948,104.202 396.5,105.5C 396.379,110.652 396.379,115.985 396.5,121.5 Z"/></g>
<g><path style="opacity:0.69"  fill="#7b337d" d="M 164.5,108.5 C 167.389,112.571 167.056,116.404 163.5,120C 161.292,120.191 159.292,120.691 157.5,121.5C 156.833,121.5 156.5,121.167 156.5,120.5C 155.259,118.432 154.259,116.265 153.5,114C 153.954,112.061 154.621,110.228 155.5,108.5C 158.5,107.167 161.5,107.167 164.5,108.5 Z M 161.5,110.5 C 164.319,114.041 163.653,116.708 159.5,118.5C 157.615,116.15 157.282,113.65 158.5,111C 159.448,110.517 160.448,110.351 161.5,110.5 Z"/></g>
<g><path style="opacity:0.133" fill="#7b337d" d="M 161.5,110.5 C 160.448,110.351 159.448,110.517 158.5,111C 157.282,113.65 157.615,116.15 159.5,118.5C 155.266,116.615 154.599,113.782 157.5,110C 159.066,109.235 160.399,109.402 161.5,110.5 Z"/></g>
<g><path style="opacity:0.22"  fill="#7b337d" d="M 268.5,103.5 C 270.167,103.5 271.833,103.5 273.5,103.5C 273.263,104.791 273.596,105.791 274.5,106.5C 274.5,106.833 274.5,107.167 274.5,107.5C 273.957,107.56 273.624,107.893 273.5,108.5C 274.325,109.386 275.325,109.719 276.5,109.5C 276.335,112.85 276.502,116.183 277,119.5C 277.893,120.711 278.726,120.711 279.5,119.5C 277.711,116.444 277.044,113.111 277.5,109.5C 279.179,109.715 280.179,109.048 280.5,107.5C 281.5,108.167 282.5,108.833 283.5,109.5C 283.672,110.492 283.338,111.158 282.5,111.5C 281.791,110.596 280.791,110.263 279.5,110.5C 279.337,112.857 279.503,115.19 280,117.5C 280.708,118.381 281.542,119.047 282.5,119.5C 280.718,121.687 278.552,122.02 276,120.5C 274.839,107.183 274.006,107.183 273.5,120.5C 272.167,116.5 270.833,112.5 269.5,108.5C 267.153,107.393 266.82,105.726 268.5,103.5 Z"/></g>
<g><path style="opacity:0.157" fill="#7b337d" d="M 289.5,107.5 C 293.665,108.168 295.998,110.668 296.5,115C 295.804,116.893 294.97,118.726 294,120.5C 289.948,122.03 286.115,121.697 282.5,119.5C 282.5,119.167 282.5,118.833 282.5,118.5C 284.307,119.615 286.307,120.281 288.5,120.5C 290.481,120.563 292.148,119.896 293.5,118.5C 293.043,117.702 292.376,117.369 291.5,117.5C 291.209,116.351 290.376,115.684 289,115.5C 288.167,115.667 287.333,115.833 286.5,116C 287.252,116.671 287.586,117.504 287.5,118.5C 285.088,118.306 284.088,116.973 284.5,114.5C 287.5,114.5 290.5,114.5 293.5,114.5C 293.813,111.163 292.48,108.829 289.5,107.5 Z M 291.5,117.5 C 290.292,118.234 288.959,118.567 287.5,118.5C 287.586,117.504 287.252,116.671 286.5,116C 287.333,115.833 288.167,115.667 289,115.5C 290.376,115.684 291.209,116.351 291.5,117.5 Z"/></g>
<g><path style="opacity:0.696" fill="#7b337d" d="M 96.5,103.5 C 96.6661,109.176 96.4994,114.843 96,120.5C 92.9832,120.219 89.8166,120.219 86.5,120.5C 86.5,120.167 86.5,119.833 86.5,119.5C 84.977,115.645 85.3104,111.979 87.5,108.5C 89.5273,108.338 91.5273,108.505 93.5,109C 91.7818,109.346 90.1151,109.846 88.5,110.5C 85.6943,114.078 86.361,116.744 90.5,118.5C 91.1667,118.5 91.8333,118.5 92.5,118.5C 95.5495,116.815 96.2161,114.315 94.5,111C 95.0161,108.331 95.6827,105.831 96.5,103.5 Z M 92.5,118.5 C 91.8333,118.5 91.1667,118.5 90.5,118.5C 88.8178,115.39 89.3178,112.724 92,110.5C 93.8116,113.046 93.9783,115.712 92.5,118.5 Z"/></g>
<g><path style="opacity:0.808" fill="#7b337d" d="M 197.5,102.5 C 198.816,105.087 199.483,108.087 199.5,111.5C 199.167,114.5 198.833,117.5 198.5,120.5C 197.504,114.537 197.171,108.537 197.5,102.5 Z"/></g>
<g><path style="opacity:0.229" fill="#7b337d" d="M 213.5,118.5 C 212.417,118.461 211.417,118.127 210.5,117.5C 209.438,118.425 209.438,119.425 210.5,120.5C 207.31,119.333 206.977,117.666 209.5,115.5C 211.261,116.035 212.594,117.035 213.5,118.5 Z"/></g>
<g><path style="opacity:0.541" fill="#7b337d" d="M 240.5,104.5 C 241.764,106.27 243.264,107.937 245,109.5C 245.816,108.177 246.983,107.511 248.5,107.5C 248.389,108.117 248.056,108.617 247.5,109C 249.058,109.21 250.391,109.71 251.5,110.5C 249.973,110.427 248.973,111.094 248.5,112.5C 247.25,112.423 246.417,111.756 246,110.5C 245.51,111.793 245.343,113.127 245.5,114.5C 246.5,114.5 247.5,114.5 248.5,114.5C 249.141,118.154 251.141,119.154 254.5,117.5C 255.525,117.897 255.692,118.563 255,119.5C 254.005,120.066 253.172,120.733 252.5,121.5C 245.722,121.393 243.056,118.06 244.5,111.5C 244.043,110.702 243.376,110.369 242.5,110.5C 240.631,112.635 239.964,115.302 240.5,118.5C 239.523,115.713 239.19,112.713 239.5,109.5C 243.243,109.541 243.41,108.874 240,107.5C 239.26,106.251 239.427,105.251 240.5,104.5 Z"/></g>
<g><path style="opacity:0.229" fill="#7b337d" d="M 242.5,110.5 C 242.5,113.167 242.5,115.833 242.5,118.5C 241.833,118.5 241.167,118.5 240.5,118.5C 239.964,115.302 240.631,112.635 242.5,110.5 Z"/></g>
<g><path style="opacity:0.435" fill="#7b337d" d="M 262.5,102.5 C 261.244,104.941 261.244,107.274 262.5,109.5C 262.5,113.5 262.5,117.5 262.5,121.5C 260.901,121.768 259.568,121.434 258.5,120.5C 258.249,117.29 258.249,114.29 258.5,111.5C 258.123,108.475 257.956,105.475 258,102.5C 259.616,101.199 261.116,101.199 262.5,102.5 Z"/></g>
<g><path style="opacity:0.301" fill="#7b337d" d="M 344.5,110.5 C 344.5,114.167 344.5,117.833 344.5,121.5C 342.901,121.768 341.568,121.434 340.5,120.5C 341.833,117.167 343.167,113.833 344.5,110.5 Z"/></g>
<g><path style="opacity:0.569" fill="#7b337d" d="M 100.5,108.5 C 102.237,111.008 103.07,114.008 103,117.5C 104.011,118.337 105.178,118.67 106.5,118.5C 107.167,118.5 107.5,118.167 107.5,117.5C 108.117,117.389 108.617,117.056 109,116.5C 109.333,113.833 109.667,111.167 110,108.5C 110.825,112.211 110.659,115.878 109.5,119.5C 107.253,120.374 104.92,120.708 102.5,120.5C 101.094,120.027 100.427,119.027 100.5,117.5C 100.5,114.5 100.5,111.5 100.5,108.5 Z"/></g>
<g><path style="opacity:0.173" fill="#7b337d" d="M 235.5,107.5 C 235.263,108.791 235.596,109.791 236.5,110.5C 236.665,113.518 236.498,116.518 236,119.5C 235.722,120.416 235.222,121.082 234.5,121.5C 234.818,116.968 234.485,112.634 233.5,108.5C 232.105,109.815 231.105,109.481 230.5,107.5C 232.234,106.438 233.901,106.438 235.5,107.5 Z"/></g>
<g><path style="opacity:0.522" fill="#7b337d" d="M 240.5,104.5 C 239.427,105.251 239.26,106.251 240,107.5C 243.41,108.874 243.243,109.541 239.5,109.5C 239.19,112.713 239.523,115.713 240.5,118.5C 241.679,120.507 241.179,120.84 239,119.5C 239.038,115.668 238.205,112.168 236.5,109C 238.107,107.951 238.773,106.451 238.5,104.5C 239.167,103.167 239.833,103.167 240.5,104.5 Z"/></g>
<g><path style="opacity:0.071" fill="#7b337d" d="M 184.5,107.5 C 184.167,108.833 183.833,110.167 183.5,111.5C 182.168,114.551 182.501,117.551 184.5,120.5C 183.25,120.423 182.417,119.756 182,118.5C 181.072,121.035 179.238,122.035 176.5,121.5C 176.665,118.15 176.498,114.817 176,111.5C 175,110.167 174,110.167 173,111.5C 172.502,114.817 172.335,118.15 172.5,121.5C 169.762,122.035 167.928,121.035 167,118.5C 164.454,121.186 161.287,122.186 157.5,121.5C 159.292,120.691 161.292,120.191 163.5,120C 167.056,116.404 167.389,112.571 164.5,108.5C 165.458,108.953 166.292,109.619 167,110.5C 167.483,109.552 167.649,108.552 167.5,107.5C 172.685,106.802 177.352,107.802 181.5,110.5C 182.288,109.23 183.288,108.23 184.5,107.5 Z"/></g>
<g><path style="opacity:0.486" fill="#7b337d" d="M 169.5,108.5 C 178.694,107.503 181.694,111.503 178.5,120.5C 177.676,117.215 177.176,113.882 177,110.5C 174.733,109.065 172.733,109.398 171,111.5C 170.667,114.167 170.333,116.833 170,119.5C 169.501,115.848 169.335,112.182 169.5,108.5 Z"/></g>
<g><path style="opacity:0.42"  fill="#7b337d" d="M 184.5,107.5 C 186.5,107.5 188.5,107.5 190.5,107.5C 191.008,109.233 191.841,109.566 193,108.5C 193.667,112.5 193.667,116.5 193,120.5C 190.315,120.173 187.482,120.173 184.5,120.5C 182.501,117.551 182.168,114.551 183.5,111.5C 183.833,110.167 184.167,108.833 184.5,107.5 Z M 189.5,110.5 C 190.629,112.628 190.796,114.961 190,117.5C 189.329,118.252 188.496,118.586 187.5,118.5C 186.847,117.193 186.18,115.86 185.5,114.5C 186.246,113.264 186.579,111.93 186.5,110.5C 187.5,110.5 188.5,110.5 189.5,110.5 Z"/></g>
<g><path style="opacity:0.141" fill="#7b337d" d="M 189.5,110.5 C 188.5,110.5 187.5,110.5 186.5,110.5C 186.579,111.93 186.246,113.264 185.5,114.5C 186.18,115.86 186.847,117.193 187.5,118.5C 184.41,117.335 183.076,115.002 183.5,111.5C 185.362,109.525 187.362,109.192 189.5,110.5 Z"/></g>
<g><path style="opacity:0.329" fill="#7b337d" d="M 363.5,121.5 C 362.167,121.5 361.5,120.833 361.5,119.5C 361.031,117.005 361.031,114.339 361.5,111.5C 361.5,111.167 361.5,110.833 361.5,110.5C 361.783,109.711 362.283,109.044 363,108.5C 364.645,108.693 366.479,108.86 368.5,109C 367.234,109.309 366.067,109.809 365,110.5C 364.76,114.252 364.26,117.919 363.5,121.5 Z"/></g>
<g><path style="opacity:0.216" fill="#7b337d" d="M 384.5,114.5 C 382.859,116.203 381.859,118.37 381.5,121C 379.934,121.765 378.601,121.598 377.5,120.5C 378.5,120.5 379.5,120.5 380.5,120.5C 380.5,118.5 380.5,116.5 380.5,114.5C 381.261,113.609 382.261,112.942 383.5,112.5C 384.298,112.957 384.631,113.624 384.5,114.5 Z"/></g>
<g><path style="opacity:0.008" fill="#7b337d" d="M 84.5,118.5 C 85.1667,118.833 85.8333,119.167 86.5,119.5C 86.5,119.833 86.5,120.167 86.5,120.5C 86.5,120.833 86.5,121.167 86.5,121.5C 85.8333,121.5 85.1667,121.5 84.5,121.5C 84.5,120.5 84.5,119.5 84.5,118.5 Z"/></g>
<g><path style="opacity:0.612" fill="#7b337d" d="M 119.5,118.5 C 120.5,118.5 121.5,118.5 122.5,118.5C 123.239,118.369 123.906,118.536 124.5,119C 121.118,120.942 117.785,120.775 114.5,118.5C 113.286,115.796 113.286,113.129 114.5,110.5C 117.177,108.568 120.177,108.068 123.5,109C 120.666,109.045 118.166,109.879 116,111.5C 114.687,115.205 115.854,117.538 119.5,118.5 Z"/></g>
<g><path style="opacity:0.851" fill="#7b337d" d="M 230.5,107.5 C 231.105,109.481 232.105,109.815 233.5,108.5C 233.666,112.514 233.499,116.514 233,120.5C 230.315,120.173 227.482,120.173 224.5,120.5C 223.833,120.5 223.5,120.167 223.5,119.5C 222.597,116.609 222.264,113.609 222.5,110.5C 222.577,109.25 223.244,108.417 224.5,108C 226.473,107.505 228.473,107.338 230.5,107.5 Z M 229.5,110.5 C 232.337,113.995 231.67,116.661 227.5,118.5C 224.419,114.822 225.086,112.155 229.5,110.5 Z"/></g>
<g><path style="opacity:0.286" fill="#7b337d" d="M 229.5,110.5 C 225.086,112.155 224.419,114.822 227.5,118.5C 226.504,118.586 225.671,118.252 225,117.5C 224.333,115.167 224.333,112.833 225,110.5C 226.616,109.199 228.116,109.199 229.5,110.5 Z"/></g>
<g><path style="opacity:0.792" fill="#7b337d" d="M 401.5,107.5 C 401.328,108.492 401.662,109.158 402.5,109.5C 402.217,110.289 401.717,110.956 401,111.5C 399.69,115.284 400.857,117.618 404.5,118.5C 406.144,118.19 407.144,117.19 407.5,115.5C 407.833,115.5 408.167,115.5 408.5,115.5C 408.157,117.483 408.824,118.817 410.5,119.5C 407.713,120.477 404.713,120.81 401.5,120.5C 400.167,120.5 399.5,119.833 399.5,118.5C 398.167,115.5 398.167,112.5 399.5,109.5C 399.833,108.5 400.5,107.833 401.5,107.5 Z"/></g>
<g><path style="opacity:0.212" fill="#7b337d" d="M 83.5,118.5 C 83.8333,118.5 84.1667,118.5 84.5,118.5C 84.5,119.5 84.5,120.5 84.5,121.5C 80.2984,121.817 76.2984,121.483 72.5,120.5C 76.649,121.08 80.3157,120.414 83.5,118.5 Z"/></g>
<g><path style="opacity:0.208" fill="#7b337d" d="M 96.5,103.5 C 97.4896,109.31 97.8229,115.31 97.5,121.5C 93.8333,121.5 90.1667,121.5 86.5,121.5C 86.5,121.167 86.5,120.833 86.5,120.5C 89.8166,120.219 92.9832,120.219 96,120.5C 96.4994,114.843 96.6661,109.176 96.5,103.5 Z"/></g>
<g><path style="opacity:0.047" fill="#7b337d" d="M 137.5,108.5 C 138.485,112.634 138.818,116.968 138.5,121.5C 135.15,121.665 131.817,121.498 128.5,121C 127.944,120.617 127.611,120.117 127.5,119.5C 128.817,119.821 130.151,120.154 131.5,120.5C 132.713,120.253 133.38,119.586 133.5,118.5C 134.833,115.833 134.833,113.167 133.5,110.5C 136.47,112.029 137.136,114.362 135.5,117.5C 136,118.5 136.5,119.5 137,120.5C 137.499,116.514 137.666,112.514 137.5,108.5 Z"/></g>
<g><path style="opacity:0.145" fill="#7b337d" d="M 135.5,107.5 C 137.05,106.28 138.716,106.28 140.5,107.5C 142.023,111.279 142.857,115.279 143,119.5C 145.179,120.84 145.679,120.507 144.5,118.5C 145.167,118.5 145.833,118.5 146.5,118.5C 147.931,117.22 148.598,115.553 148.5,113.5C 148.216,111.585 148.549,109.919 149.5,108.5C 149.334,112.514 149.501,116.514 150,120.5C 150.383,119.944 150.883,119.611 151.5,119.5C 151.5,120.167 151.5,120.833 151.5,121.5C 148.482,121.665 145.482,121.498 142.5,121C 141.944,120.617 141.611,120.117 141.5,119.5C 141.81,116.287 141.477,113.287 140.5,110.5C 139.662,110.842 139.328,111.508 139.5,112.5C 139.5,112.833 139.5,113.167 139.5,113.5C 139.5,113.833 139.5,114.167 139.5,114.5C 139.216,116.415 139.549,118.081 140.5,119.5C 140.167,120.5 139.5,121.167 138.5,121.5C 138.818,116.968 138.485,112.634 137.5,108.5C 137.158,107.662 136.492,107.328 135.5,107.5 Z M 148.5,113.5 C 148.598,115.553 147.931,117.22 146.5,118.5C 146.739,116.533 146.406,114.699 145.5,113C 146.126,112.25 146.626,111.416 147,110.5C 147.232,111.737 147.732,112.737 148.5,113.5 Z"/></g>
<g><path style="opacity:0.007" fill="#7b337d" d="M 140.5,110.5 C 141.477,113.287 141.81,116.287 141.5,119.5C 141.167,119.5 140.833,119.5 140.5,119.5C 139.549,118.081 139.216,116.415 139.5,114.5C 140.833,114.167 140.833,113.833 139.5,113.5C 139.5,113.167 139.5,112.833 139.5,112.5C 140.338,112.158 140.672,111.492 140.5,110.5 Z"/></g>
<g><path style="opacity:0.302" fill="#7b337d" d="M 222.5,110.5 C 222.264,113.609 222.597,116.609 223.5,119.5C 220.907,120.853 218.073,121.519 215,121.5C 213.293,121.492 211.793,121.158 210.5,120.5C 218.212,121.793 220.879,118.793 218.5,111.5C 219.496,111.414 220.329,111.748 221,112.5C 221.278,111.584 221.778,110.918 222.5,110.5 Z"/></g>
<g><path style="opacity:0.325" fill="#7b337d" d="M 233.5,108.5 C 234.485,112.634 234.818,116.968 234.5,121.5C 230.958,121.813 227.625,121.479 224.5,120.5C 227.482,120.173 230.315,120.173 233,120.5C 233.499,116.514 233.666,112.514 233.5,108.5 Z"/></g>
<g><path style="opacity:0.188" fill="#7b337d" d="M 238.5,104.5 C 238.773,106.451 238.107,107.951 236.5,109C 238.205,112.168 239.038,115.668 239,119.5C 241.179,120.84 241.679,120.507 240.5,118.5C 241.167,118.5 241.833,118.5 242.5,118.5C 244.233,119.008 244.566,119.841 243.5,121C 241.559,121.743 239.726,121.576 238,120.5C 237.821,116.975 237.321,113.641 236.5,110.5C 235.596,109.791 235.263,108.791 235.5,107.5C 236.9,106.9 237.9,105.9 238.5,104.5 Z"/></g>
</svg>
